<?xml version="1.0" encoding="UTF-8" standalone="no"?>
<!DOCTYPE svg PUBLIC "-//W3C//DTD SVG 1.1//EN" "http://www.w3.org/Graphics/SVG/1.1/DTD/svg11.dtd">
<svg xmlns="http://www.w3.org/2000/svg" xmlns:xlink="http://www.w3.org/1999/xlink" version="1.1" width="277.795pt" height="187.087pt" viewBox="0 0 277.795 187.087">
<g enable-background="new">
<g id="Layer-1" data-name="Layer 1">
<path transform="matrix(1,0,0,-1,0,187.087)" d="M 0 0 L 277.795 0 L 277.795 187.087 L 0 187.087 Z " fill="#2d3278"/>
<path transform="matrix(1,0,0,-1,0,187.087)" d="M 0 0 L 277.795 0 L 277.795 187.087 L 0 187.087 Z " fill="#2d3278"/>
<clipPath id="cp0">
<path transform="matrix(1,0,0,-1,0,187.087)" d="M 0 187.087 L 277.795 187.087 L 277.795 0 L 0 0 Z "/>
</clipPath>
<g clip-path="url(#cp0)">
<path transform="matrix(1,0,0,-1,70.457,113.319408)" d="M 0 0 C .958 -.301 1.975 .229 2.277 1.182 C 2.579 2.135 2.049 3.155 1.096 3.457 C .141 3.759 -.879 3.229 -1.181 2.276 C -1.482 1.323 -.953 .302 0 0 M .545 -1.963 C .177 -1.963 -.197 -1.907 -.566 -1.79 C -2.507 -1.176 -3.585 .903 -2.971 2.844 C -2.673 3.783 -2.026 4.551 -1.152 5.006 C -.275 5.46 .724 5.546 1.663 5.247 C 2.603 4.949 3.371 4.304 3.825 3.429 C 4.279 2.554 4.365 1.554 4.067 .614 C 3.569 -.957 2.112 -1.963 .545 -1.963 " fill="#19171c"/>
<path transform="matrix(1,0,0,-1,78.1767,90.31801)" d="M 0 0 L -33.339 15.519 C -35.674 16.54 -38.395 15.475 -39.416 13.139 C -40.437 10.804 -39.371 8.083 -37.036 7.062 L -3.002 -6.869 C -1.105 -7.698 1.104 -6.833 1.933 -4.936 C 2.762 -3.039 1.897 -.829 0 0 " fill="#3d498c"/>
<path transform="matrix(1,0,0,-1,42.9955,75.34871)" d="M 0 0 C -.454 0 -.91 -.085 -1.347 -.256 C -2.261 -.614 -2.981 -1.307 -3.375 -2.206 C -3.768 -3.105 -3.787 -4.104 -3.429 -5.019 C -3.071 -5.933 -2.378 -6.653 -1.479 -7.046 L 32.535 -20.969 C 33.973 -21.601 35.634 -20.948 36.254 -19.529 C 36.555 -18.841 36.569 -18.078 36.295 -17.379 C 36.022 -16.681 35.493 -16.13 34.805 -15.829 C 34.798 -15.827 34.792 -15.824 34.785 -15.821 L 1.445 -.302 C .986 -.102 .495 0 0 0 M 33.673 -23.091 C 33.047 -23.091 32.412 -22.965 31.803 -22.698 L -2.21 -8.776 C -5.037 -7.541 -6.322 -4.259 -5.095 -1.454 C -3.869 1.353 -.585 2.639 2.218 1.41 L 35.568 -14.114 C 36.71 -14.616 37.589 -15.532 38.044 -16.694 C 38.501 -17.86 38.477 -19.134 37.975 -20.281 C 37.206 -22.04 35.48 -23.091 33.673 -23.091 " fill="#171843"/>
<path transform="matrix(1,0,0,-1,73.1132,97.359508)" d="M 0 0 L -3.828 -13.653 C -4.139 -14.637 -3.609 -15.658 -2.656 -15.96 C -1.701 -16.264 -.682 -15.731 -.379 -14.778 L 4.528 -.937 C 2.933 -1.197 1.36 -.558 .61 -.253 C .608 -.252 .606 -.251 .604 -.25 Z M -2.109 -17.924 C -2.478 -17.924 -2.853 -17.868 -3.222 -17.75 C -5.164 -17.136 -6.242 -15.057 -5.627 -13.116 L -1.522 1.524 C -1.45 1.783 -1.271 1.998 -1.029 2.115 C -.787 2.233 -.508 2.241 -.26 2.14 L 1.319 1.486 C 2.851 .865 4.419 .452 5.516 1.605 C 5.82 1.927 6.308 1.993 6.688 1.76 C 7.065 1.528 7.23 1.063 7.082 .646 L 1.401 -15.376 C .911 -16.922 -.544 -17.924 -2.109 -17.924 " fill="#171843"/>
<path transform="matrix(1,0,0,-1,47.2172,80.8756)" d="M 0 0 C -1.021 -2.335 -3.741 -3.4 -6.077 -2.38 C -8.412 -1.359 -9.477 1.362 -8.457 3.697 C -7.436 6.032 -4.715 7.098 -2.38 6.077 C -.045 5.056 1.021 2.335 0 0 " fill="#ffffff"/>
<path transform="matrix(1,0,0,-1,42.9897,75.34971)" d="M 0 0 C -.453 0 -.906 -.085 -1.341 -.255 C -2.255 -.613 -2.975 -1.306 -3.369 -2.206 C -3.762 -3.104 -3.781 -4.104 -3.423 -5.018 C -3.065 -5.932 -2.372 -6.652 -1.473 -7.045 C -.573 -7.438 .425 -7.458 1.34 -7.1 C 2.254 -6.742 2.974 -6.05 3.367 -5.149 C 3.76 -4.25 3.78 -3.251 3.421 -2.337 C 3.063 -1.423 2.371 -.703 1.471 -.31 C 1 -.104 .5 0 0 0 M -.002 -9.234 C -.758 -9.234 -1.512 -9.078 -2.225 -8.766 C -3.584 -8.171 -4.631 -7.084 -5.171 -5.703 C -5.712 -4.321 -5.683 -2.813 -5.089 -1.454 C -4.495 -.094 -3.407 .953 -2.026 1.493 C -.645 2.035 .865 2.004 2.224 1.411 C 3.583 .817 4.629 -.271 5.17 -1.652 C 5.711 -3.033 5.682 -4.542 5.088 -5.902 C 4.494 -7.261 3.406 -8.307 2.025 -8.848 C 1.368 -9.106 .683 -9.234 -.002 -9.234 " fill="#19171c"/>
<path transform="matrix(1,0,0,-1,45.3017,80.03821)" d="M 0 0 C -.559 -1.277 -2.046 -1.86 -3.324 -1.302 C -4.601 -.743 -5.184 .745 -4.625 2.022 C -4.067 3.299 -2.579 3.882 -1.302 3.324 C -.024 2.765 .558 1.277 0 0 " fill="#ffffff"/>
<path transform="matrix(1,0,0,-1,42.9921,77.442508)" d="M 0 0 C -.611 0 -1.195 -.355 -1.456 -.95 C -1.625 -1.338 -1.633 -1.768 -1.479 -2.163 C -1.324 -2.556 -1.026 -2.867 -.638 -3.036 C -.25 -3.208 .182 -3.215 .575 -3.06 C .969 -2.906 1.279 -2.607 1.449 -2.219 C 1.799 -1.418 1.432 -.482 .632 -.132 C .426 -.042 .211 0 0 0 M -.004 -5.049 C -.475 -5.049 -.945 -4.952 -1.39 -4.757 C -2.238 -4.387 -2.89 -3.708 -3.228 -2.847 C -3.565 -1.986 -3.546 -1.045 -3.176 -.198 C -2.413 1.551 -.368 2.354 1.384 1.589 C 3.134 .824 3.935 -1.222 3.17 -2.971 C 2.8 -3.819 2.121 -4.472 1.26 -4.809 C .851 -4.969 .423 -5.049 -.004 -5.049 " fill="#19171c"/>
<path transform="matrix(1,0,0,-1,80.1098,95.254009)" d="M 0 0 C -.829 -1.896 -3.039 -2.762 -4.936 -1.933 C -6.832 -1.104 -7.698 1.106 -6.869 3.003 C -6.04 4.899 -3.83 5.765 -1.933 4.936 C -.036 4.107 .829 1.897 0 0 " fill="#3d498c"/>
<path transform="matrix(1,0,0,-1,76.6762,90.941509)" d="M 0 0 C -.346 0 -.693 -.065 -1.025 -.195 C -1.724 -.469 -2.274 -.998 -2.575 -1.686 C -3.195 -3.105 -2.545 -4.765 -1.126 -5.385 C .293 -6.005 1.954 -5.355 2.573 -3.937 C 2.874 -3.249 2.889 -2.485 2.615 -1.786 C 2.342 -1.088 1.812 -.537 1.125 -.236 C .764 -.079 .382 0 0 0 M -.008 -7.498 C -.633 -7.498 -1.269 -7.372 -1.878 -7.105 C -4.246 -6.07 -5.33 -3.302 -4.295 -.934 C -3.794 .213 -2.875 1.097 -1.71 1.554 C -.544 2.01 .729 1.987 1.876 1.484 C 4.245 .448 5.329 -2.32 4.294 -4.688 C 3.525 -6.447 1.799 -7.498 -.008 -7.498 " fill="#171843"/>
<path transform="matrix(1,0,0,-1,66.2778,103.51571)" d="M 0 0 L 6.667 -6.367 C 7.61 -7.364 7.567 -8.938 6.57 -9.881 C 5.573 -10.824 4 -10.78 3.057 -9.783 L -2.932 -2.775 C -3.698 -1.965 -3.663 -.687 -2.854 .078 C -2.043 .845 -.766 .81 0 0 " fill="#3d498c"/>
<path transform="matrix(1,0,0,-1,64.811,103.8233)" d="M 0 0 C -.277 0 -.54 -.104 -.742 -.296 C -1.173 -.705 -1.192 -1.39 -.784 -1.823 L 5.238 -8.865 C 5.49 -9.13 5.874 -9.302 6.286 -9.313 C 6.694 -9.331 7.091 -9.175 7.392 -8.891 C 7.692 -8.607 7.863 -8.224 7.874 -7.811 C 7.886 -7.397 7.736 -7.005 7.452 -6.706 L .818 -.372 C .807 -.361 .795 -.35 .785 -.338 C .586 -.129 .319 -.009 .031 -.001 C .021 -.001 .01 0 0 0 M 6.33 -11.19 C 5.421 -11.19 4.514 -10.832 3.841 -10.121 L -2.18 -3.078 C -3.269 -1.928 -3.217 -.053 -2.033 1.068 C -.854 2.184 1.008 2.139 2.131 .971 L 8.782 -5.381 C 10.113 -6.786 10.054 -8.957 8.683 -10.255 C 8.022 -10.88 7.175 -11.19 6.33 -11.19 " fill="#171843"/>
<path transform="matrix(1,0,0,-1,69.4316,109.78621)" d="M 0 0 C -.997 -.943 -1.04 -2.517 -.097 -3.513 C .846 -4.51 2.419 -4.554 3.416 -3.61 C 4.413 -2.667 4.457 -1.094 3.513 -.097 C 2.57 .899 .997 .943 0 0 " fill="#3d498c"/>
<path transform="matrix(1,0,0,-1,71.1391,110.046009)" d="M 0 0 C -.381 0 -.763 -.14 -1.062 -.423 C -1.362 -.706 -1.534 -1.09 -1.545 -1.503 C -1.556 -1.915 -1.406 -2.308 -1.123 -2.607 C -.838 -2.907 -.455 -3.079 -.042 -3.091 C .366 -3.108 .763 -2.952 1.063 -2.668 C 1.683 -2.082 1.709 -1.102 1.124 -.483 C .82 -.162 .41 0 0 0 M .003 -4.969 C -.029 -4.969 -.062 -4.969 -.094 -4.968 C -1.009 -4.942 -1.858 -4.562 -2.487 -3.898 C -3.115 -3.234 -3.448 -2.365 -3.422 -1.451 C -3.397 -.536 -3.017 .313 -2.353 .942 C -1.688 1.571 -.823 1.92 .095 1.877 C 1.01 1.853 1.859 1.472 2.488 .809 C 3.785 -.563 3.726 -2.734 2.354 -4.032 C 1.713 -4.639 .882 -4.969 .003 -4.969 " fill="#171843"/>
<path transform="matrix(1,0,0,-1,55.853,101.6339)" d="M 0 0 L 7.396 -7.816 C 7.54 -7.969 7.779 -7.975 7.931 -7.831 L 13.57 -2.496 C 13.722 -2.352 13.729 -2.112 13.585 -1.96 L 9.356 2.509 C 7.463 4.51 4.307 4.597 2.307 2.704 L .015 .535 C -.137 .392 -.144 .152 0 0 " fill="#3d498c"/>
<path transform="matrix(1,0,0,-1,56.9199,101.39561)" d="M 0 0 L 6.626 -7.002 L 11.451 -2.437 L 8.471 .713 C 6.462 2.837 3.097 2.931 .972 .92 Z M 6.609 -9.073 C 6.595 -9.073 6.582 -9.072 6.568 -9.072 C 6.191 -9.062 5.84 -8.905 5.581 -8.63 L -1.684 -.953 C -1.684 -.953 -1.684 -.952 -1.685 -.952 C -2.219 -.385 -2.193 .511 -1.628 1.045 L -.319 2.284 C 2.559 5.004 7.112 4.879 9.835 2.004 L 13.135 -1.483 C 13.669 -2.05 13.645 -2.945 13.08 -3.48 L 7.58 -8.686 C 7.314 -8.936 6.971 -9.073 6.609 -9.073 " fill="#171843"/>
<path transform="matrix(1,0,0,-1,79.2768,114.024509)" d="M 0 0 C 1.318 -.603 2.877 -.02 3.479 1.296 C 4.082 2.612 3.5 4.174 2.184 4.775 C 1.546 5.068 .832 5.094 .176 4.849 C -.481 4.604 -1.003 4.118 -1.295 3.479 C -1.587 2.842 -1.613 2.129 -1.369 1.472 C -1.124 .814 -.637 .292 0 0 M 1.085 -2.115 C .459 -2.115 -.176 -1.984 -.781 -1.708 C -1.875 -1.208 -2.708 -.311 -3.128 .816 C -3.548 1.943 -3.504 3.167 -3.003 4.261 C -2.503 5.354 -1.607 6.188 -.479 6.608 C .647 7.027 1.871 6.984 2.965 6.483 C 5.224 5.45 6.22 2.772 5.187 .515 C 4.432 -1.138 2.794 -2.115 1.085 -2.115 " fill="#19171c"/>
<path transform="matrix(1,0,0,-1,91.9423,84.97371)" d="M 0 0 L -45.043 15.476 C -48.189 16.474 -51.549 14.733 -52.548 11.587 C -53.547 8.441 -51.806 5.082 -48.66 4.083 L -2.938 -9.254 C -.382 -10.065 2.347 -8.651 3.158 -6.096 C 3.969 -3.541 2.556 -.812 0 0 " fill="#3d498c"/>
<path transform="matrix(1,0,0,-1,45.0922,70.15291)" d="M 0 0 C -2.129 0 -4.122 -1.373 -4.803 -3.518 C -5.21 -4.8 -5.093 -6.164 -4.474 -7.359 C -3.855 -8.553 -2.808 -9.436 -1.525 -9.843 L 44.176 -23.173 C 46.253 -23.834 48.46 -22.689 49.113 -20.632 C 49.43 -19.635 49.339 -18.575 48.858 -17.646 C 48.377 -16.718 47.563 -16.033 46.566 -15.716 C 46.559 -15.713 46.552 -15.712 46.545 -15.709 L 1.502 -.233 C 1.004 -.075 .498 0 0 0 M 45.377 -25.242 C 44.798 -25.242 44.209 -25.154 43.628 -24.969 L -2.073 -11.64 C -3.854 -11.074 -5.292 -9.863 -6.142 -8.223 C -6.992 -6.583 -7.152 -4.71 -6.593 -2.949 C -5.439 .685 -1.547 2.704 2.091 1.55 L 47.146 -13.93 C 48.615 -14.399 49.815 -15.412 50.526 -16.783 C 51.237 -18.156 51.372 -19.726 50.903 -21.201 C 50.122 -23.664 47.835 -25.242 45.377 -25.242 " fill="#171843"/>
<path transform="matrix(1,0,0,-1,85.4384,92.65681)" d="M 0 0 L -7.444 -17.859 C -7.749 -18.526 -7.774 -19.239 -7.529 -19.896 C -7.285 -20.553 -6.799 -21.076 -6.162 -21.368 C -5.524 -21.66 -4.81 -21.685 -4.153 -21.44 C -3.497 -21.196 -2.974 -20.709 -2.682 -20.071 L 6.016 -2.644 C 4.063 -2.988 2.002 -2.313 .63 -.707 Z M -5.072 -23.486 C -5.709 -23.486 -6.345 -23.349 -6.943 -23.076 C -9.2 -22.042 -10.197 -19.365 -9.165 -17.107 L -1.16 2.1 C -1.036 2.398 -.768 2.611 -.449 2.665 C -.13 2.718 .193 2.604 .408 2.364 L 2.039 .536 C 2.043 .531 2.048 .525 2.053 .519 C 3.409 -1.073 5.768 -1.311 7.428 -.022 C 7.774 .248 8.26 .241 8.599 -.037 C 8.938 -.315 9.04 -.791 8.844 -1.183 L -.988 -20.881 C -1.474 -21.946 -2.37 -22.78 -3.498 -23.201 C -4.009 -23.391 -4.541 -23.486 -5.072 -23.486 " fill="#171843"/>
<path transform="matrix(1,0,0,-1,50.787,77.0025)" d="M 0 0 C -.999 -3.146 -4.358 -4.887 -7.504 -3.888 C -10.65 -2.89 -12.391 .47 -11.393 3.616 C -10.394 6.762 -7.034 8.503 -3.888 7.504 C -.742 6.506 .999 3.146 0 0 " fill="#ffffff"/>
<path transform="matrix(1,0,0,-1,50.7875,77.0025)" d="M 0 0 L .012 0 Z M -5.693 6.846 C -7.83 6.846 -9.818 5.474 -10.498 3.332 C -11.338 .685 -9.869 -2.153 -7.221 -2.993 C -4.572 -3.835 -1.735 -2.364 -.895 .284 C -.055 2.932 -1.525 5.769 -4.173 6.609 C -4.678 6.77 -5.189 6.846 -5.693 6.846 M -5.701 -5.108 C -6.393 -5.108 -7.096 -5.003 -7.79 -4.783 C -9.549 -4.225 -10.987 -3.013 -11.837 -1.373 C -12.687 .267 -12.847 2.14 -12.288 3.9 C -11.135 7.534 -7.243 9.553 -3.604 8.399 C .03 7.246 2.048 3.35 .895 -.284 C -.039 -3.226 -2.769 -5.108 -5.701 -5.108 " fill="#19171c"/>
<path transform="matrix(1,0,0,-1,48.2065,76.183208)" d="M 0 0 C -.546 -1.721 -2.384 -2.673 -4.104 -2.127 C -5.825 -1.581 -6.777 .257 -6.231 1.978 C -5.685 3.698 -3.848 4.65 -2.127 4.104 C -.406 3.558 .546 1.721 0 0 " fill="#ffffff"/>
<path transform="matrix(1,0,0,-1,45.0927,72.8644)" d="M 0 0 C -.989 0 -1.908 -.634 -2.222 -1.625 C -2.611 -2.85 -1.931 -4.162 -.707 -4.551 C .517 -4.939 1.83 -4.259 2.219 -3.035 C 2.607 -1.811 1.927 -.498 .703 -.109 C .469 -.035 .233 0 0 0 M -.005 -6.538 C -.426 -6.538 -.853 -6.475 -1.275 -6.341 C -3.487 -5.638 -4.715 -3.268 -4.012 -1.057 C -3.311 1.154 -.943 2.383 1.271 1.681 C 3.482 .979 4.71 -1.392 4.008 -3.603 C 3.44 -5.393 1.78 -6.538 -.005 -6.538 " fill="#19171c"/>
<path transform="matrix(1,0,0,-1,93.6191,93.298007)" d="M 0 0 C -2.042 -1.737 -5.105 -1.49 -6.843 .552 C -8.58 2.594 -8.333 5.658 -6.291 7.395 C -4.249 9.132 -1.185 8.885 .552 6.843 C 2.289 4.801 2.042 1.737 0 0 " fill="#3d498c"/>
<path transform="matrix(1,0,0,-1,90.4711,85.68761)" d="M 0 0 C -.897 0 -1.799 -.305 -2.535 -.931 C -4.179 -2.33 -4.379 -4.806 -2.979 -6.45 C -2.302 -7.247 -1.354 -7.731 -.312 -7.816 C .729 -7.899 1.743 -7.573 2.54 -6.895 C 4.184 -5.497 4.384 -3.021 2.984 -1.376 C 2.212 -.467 1.109 0 0 0 M .013 -9.707 C -.145 -9.707 -.304 -9.7 -.463 -9.688 C -2.005 -9.563 -3.407 -8.846 -4.41 -7.667 C -6.48 -5.234 -6.185 -1.57 -3.751 .5 C -1.318 2.568 2.345 2.274 4.415 -.159 C 6.485 -2.592 6.19 -6.256 3.756 -8.326 C 2.7 -9.225 1.385 -9.707 .013 -9.707 " fill="#171843"/>
<path transform="matrix(1,0,0,-1,76.5571,100.11921)" d="M 0 0 L 6.731 -9.861 C 7.658 -11.379 7.18 -13.359 5.663 -14.286 C 4.146 -15.213 2.165 -14.734 1.238 -13.217 L -4.462 -2.726 C -5.214 -1.493 -4.826 .115 -3.594 .868 C -2.361 1.621 -.752 1.232 0 0 " fill="#3d498c"/>
<path transform="matrix(1,0,0,-1,74.3232,99.80581)" d="M 0 0 C -.304 0 -.604 -.084 -.87 -.246 C -1.252 -.48 -1.521 -.848 -1.625 -1.283 C -1.73 -1.718 -1.66 -2.168 -1.427 -2.55 L 4.297 -13.083 C 4.929 -14.112 6.333 -14.454 7.407 -13.798 C 7.927 -13.48 8.292 -12.979 8.434 -12.388 C 8.578 -11.796 8.481 -11.185 8.164 -10.664 L 1.458 -.843 C 1.45 -.83 1.441 -.817 1.433 -.803 C 1.2 -.422 .832 -.153 .396 -.048 C .265 -.016 .132 0 0 0 M 6.226 -16.01 C 4.824 -16.01 3.454 -15.302 2.67 -14.021 L -3.054 -3.487 C -4.051 -1.856 -3.521 .335 -1.849 1.355 C -1.039 1.851 -.085 1.999 .837 1.777 C 1.751 1.557 2.527 .996 3.022 .197 L 9.741 -9.646 C 10.346 -10.634 10.521 -11.75 10.26 -12.829 C 10 -13.909 9.333 -14.822 8.385 -15.4 C 7.711 -15.813 6.964 -16.01 6.226 -16.01 " fill="#171843"/>
<path transform="matrix(1,0,0,-1,78.8642,108.91221)" d="M 0 0 C -1.517 -.926 -1.996 -2.907 -1.069 -4.424 C -.143 -5.941 1.838 -6.42 3.355 -5.493 C 4.873 -4.566 5.351 -2.586 4.424 -1.068 C 3.498 .448 1.517 .927 0 0 " fill="#3d498c"/>
<path transform="matrix(1,0,0,-1,78.8642,108.91221)" d="M 0 0 L .012 0 Z M 1.674 -.468 C 1.27 -.468 .86 -.575 .49 -.801 L .489 -.801 C -.03 -1.118 -.396 -1.619 -.539 -2.211 C -.682 -2.803 -.585 -3.415 -.268 -3.935 C .388 -5.008 1.795 -5.349 2.866 -4.691 C 3.386 -4.374 3.75 -3.873 3.893 -3.281 C 4.037 -2.689 3.94 -2.078 3.623 -1.558 C 3.194 -.855 2.442 -.468 1.674 -.468 M 1.685 -6.903 C .283 -6.903 -1.087 -6.195 -1.871 -4.914 C -2.45 -3.966 -2.625 -2.85 -2.364 -1.77 C -2.103 -.69 -1.437 .223 -.49 .802 C 1.465 1.996 4.03 1.378 5.226 -.579 C 5.805 -1.527 5.98 -2.644 5.719 -3.723 C 5.458 -4.803 4.792 -5.716 3.844 -6.294 C 3.17 -6.706 2.423 -6.902 1.685 -6.903 " fill="#171843"/>
<path transform="matrix(1,0,0,-1,63.8574,94.9278)" d="M 0 0 L 7.265 -11.894 C 7.406 -12.125 7.708 -12.197 7.939 -12.057 L 16.519 -6.815 C 16.75 -6.675 16.823 -6.373 16.682 -6.142 L 12.528 .659 C 10.669 3.703 6.694 4.664 3.65 2.804 L .163 .674 C -.068 .533 -.141 .231 0 0 " fill="#3d498c"/>
<path transform="matrix(1,0,0,-1,79.6738,101.45321)" d="M 0 0 L 0 -.001 Z M -14.781 6.632 L -7.984 -4.495 L -.17 .277 L -3.241 5.306 C -5.295 8.669 -9.703 9.734 -13.066 7.68 Z M -7.815 -4.773 L -7.803 -4.773 Z M -8.089 -6.496 C -8.211 -6.496 -8.334 -6.481 -8.456 -6.452 C -8.86 -6.355 -9.202 -6.106 -9.418 -5.753 L -16.554 5.931 C -16.77 6.284 -16.835 6.701 -16.737 7.104 C -16.64 7.508 -16.392 7.85 -16.037 8.066 L -14.044 9.283 C -9.801 11.878 -4.233 10.532 -1.638 6.285 L 1.603 .979 C 1.818 .626 1.884 .209 1.787 -.194 C 1.69 -.599 1.441 -.939 1.087 -1.156 L -7.282 -6.268 C -7.529 -6.419 -7.806 -6.496 -8.089 -6.496 " fill="#171843"/>
<path transform="matrix(1,0,0,-1,.7441,90.30231)" d="M 0 0 L 29.623 0 C 41.973 0 51.984 10.012 51.984 22.362 C 51.984 25.264 49.632 27.616 46.73 27.616 L 0 27.616 Z " fill="#3d498c"/>
<path transform="matrix(1,0,0,-1,1.683,89.3634)" d="M 0 0 L 28.684 0 C 40.497 0 50.106 9.61 50.106 21.423 C 50.106 23.802 48.171 25.738 45.792 25.738 L 0 25.738 Z M 28.684 -1.878 L -.939 -1.878 C -1.458 -1.878 -1.878 -1.458 -1.878 -.939 L -1.878 26.677 C -1.878 27.195 -1.458 27.616 -.939 27.616 L 45.792 27.616 C 49.207 27.616 51.984 24.838 51.984 21.423 C 51.984 8.575 41.532 -1.878 28.684 -1.878 " fill="#171843"/>
<path transform="matrix(1,0,0,-1,111.2299,108.99811)" d="M 0 0 C -.265 0 -.532 -.029 -.798 -.088 C -1.757 -.299 -2.577 -.871 -3.105 -1.699 C -3.634 -2.526 -3.809 -3.511 -3.598 -4.47 C -3.386 -5.43 -2.814 -6.249 -1.987 -6.777 C -1.159 -7.307 -.176 -7.482 .785 -7.271 C 1.744 -7.059 2.563 -6.486 3.092 -5.659 C 3.621 -4.832 3.796 -3.848 3.584 -2.888 C 3.373 -1.929 2.801 -1.109 1.974 -.58 C 1.375 -.197 .694 0 0 0 M -.017 -9.236 C -1.065 -9.236 -2.093 -8.938 -2.998 -8.36 C -4.248 -7.562 -5.113 -6.323 -5.432 -4.874 C -5.751 -3.426 -5.487 -1.938 -4.688 -.687 C -3.889 .562 -2.651 1.427 -1.203 1.747 C .247 2.065 1.733 1.802 2.985 1.003 C 4.235 .203 5.1 -1.034 5.418 -2.484 C 5.738 -3.933 5.474 -5.42 4.675 -6.67 C 3.876 -7.921 2.638 -8.785 1.188 -9.104 C .788 -9.193 .384 -9.236 -.017 -9.236 " fill="#19171c"/>
<path transform="matrix(1,0,0,-1,105.872,75.87311)" d="M 0 0 L -59.862 14.882 C -64.034 15.815 -68.172 13.19 -69.105 9.019 C -70.039 4.847 -67.414 .708 -63.242 -.225 L -2.745 -12.271 C .644 -13.029 4.005 -10.896 4.763 -7.508 C 5.521 -4.12 3.389 -.758 0 0 " fill="#3d498c"/>
<path transform="matrix(1,0,0,-1,44.3124,61.739404)" d="M 0 0 C -3.102 0 -5.921 -2.156 -6.629 -5.32 C -7.026 -7.093 -6.709 -8.914 -5.736 -10.448 C -4.762 -11.982 -3.25 -13.046 -1.478 -13.442 L 58.998 -25.484 C 60.413 -25.799 61.845 -25.55 63.052 -24.786 C 64.258 -24.02 65.095 -22.831 65.406 -21.437 C 65.718 -20.042 65.469 -18.611 64.703 -17.405 C 63.938 -16.198 62.749 -15.362 61.355 -15.05 C 61.348 -15.048 61.34 -15.047 61.333 -15.045 L 1.471 -.163 C .979 -.053 .485 0 0 0 M 60.202 -27.498 C 59.672 -27.498 59.139 -27.439 58.61 -27.321 L -1.866 -15.279 C -4.15 -14.769 -6.079 -13.412 -7.321 -11.455 C -8.563 -9.496 -8.968 -7.172 -8.462 -4.911 C -7.956 -2.648 -6.599 -.718 -4.641 .524 C -2.683 1.767 -.358 2.171 1.903 1.665 L 61.775 -13.22 C 63.655 -13.644 65.257 -14.771 66.289 -16.398 C 67.323 -18.028 67.66 -19.963 67.239 -21.847 C 66.818 -23.73 65.688 -25.337 64.058 -26.372 C 62.886 -27.115 61.557 -27.498 60.202 -27.498 " fill="#171843"/>
<path transform="matrix(1,0,0,-1,101.2949,88.73691)" d="M 0 0 L 6.33 -24.701 C 6.549 -25.691 7.121 -26.51 7.949 -27.039 C 8.776 -27.568 9.759 -27.744 10.72 -27.532 C 11.679 -27.32 12.499 -26.748 13.027 -25.92 C 13.556 -25.093 13.731 -24.109 13.52 -23.149 L 8.829 2.214 C 7.162 .123 4.405 -.937 1.638 -.326 Z M 9.918 -29.498 C 8.87 -29.498 7.842 -29.2 6.937 -28.622 C 5.687 -27.823 4.822 -26.584 4.503 -25.135 L -2.19 .979 C -2.27 1.292 -2.184 1.624 -1.962 1.858 C -1.74 2.093 -1.414 2.194 -1.097 2.133 L 2.016 1.514 C 2.023 1.513 2.03 1.511 2.037 1.51 C 4.821 .89 7.596 2.566 8.346 5.337 C 8.46 5.76 8.838 6.051 9.291 6.029 C 9.729 6.011 10.096 5.692 10.175 5.261 L 15.36 -22.777 C 15.673 -24.194 15.409 -25.681 14.61 -26.931 C 13.811 -28.182 12.573 -29.046 11.124 -29.366 C 10.723 -29.455 10.319 -29.498 9.918 -29.498 " fill="#171843"/>
<path transform="matrix(1,0,0,-1,51.874,70.234508)" d="M 0 0 C -.934 -4.171 -5.072 -6.797 -9.244 -5.863 C -13.416 -4.93 -16.041 -.792 -15.107 3.38 C -14.174 7.552 -10.036 10.177 -5.864 9.244 C -1.692 8.31 .933 4.172 0 0 " fill="#3d498c"/>
<path transform="matrix(1,0,0,-1,44.3066,61.740808)" d="M 0 0 C -1.275 0 -2.526 -.36 -3.63 -1.061 C -5.164 -2.034 -6.227 -3.545 -6.624 -5.318 C -7.021 -7.091 -6.703 -8.913 -5.73 -10.447 C -4.756 -11.98 -3.245 -13.044 -1.472 -13.44 C .302 -13.836 2.123 -13.521 3.657 -12.546 C 5.191 -11.573 6.254 -10.062 6.651 -8.289 C 7.047 -6.516 6.73 -4.694 5.757 -3.161 C 4.784 -1.626 3.272 -.563 1.499 -.167 C 1 -.055 .498 0 0 0 M .031 -15.486 C -.605 -15.486 -1.246 -15.416 -1.881 -15.273 C -4.144 -14.767 -6.074 -13.41 -7.315 -11.453 C -8.557 -9.495 -8.962 -7.171 -8.457 -4.909 C -7.95 -2.646 -6.593 -.716 -4.635 .525 C -2.677 1.768 -.353 2.173 1.909 1.666 C 4.171 1.16 6.101 -.197 7.343 -2.154 C 8.584 -4.112 8.99 -6.436 8.483 -8.698 C 7.978 -10.961 6.62 -12.891 4.663 -14.132 C 3.255 -15.026 1.658 -15.486 .031 -15.486 " fill="#171843"/>
<path transform="matrix(1,0,0,-1,48.4516,69.4689)" d="M 0 0 C -.511 -2.282 -2.774 -3.717 -5.056 -3.207 C -7.337 -2.696 -8.773 -.433 -8.263 1.849 C -7.752 4.13 -5.489 5.566 -3.207 5.056 C -.925 4.545 .51 2.282 0 0 " fill="#3d498c"/>
<path transform="matrix(1,0,0,-1,44.3139,65.248607)" d="M 0 0 C -.618 0 -1.224 -.175 -1.758 -.514 C -2.501 -.985 -3.017 -1.718 -3.208 -2.576 C -3.4 -3.435 -3.247 -4.317 -2.776 -5.061 C -2.304 -5.804 -1.572 -6.319 -.713 -6.511 C .148 -6.703 1.029 -6.549 1.771 -6.078 C 2.514 -5.606 3.029 -4.874 3.221 -4.015 C 3.413 -3.156 3.26 -2.274 2.788 -1.531 C 2.317 -.788 1.584 -.272 .726 -.081 C .484 -.027 .241 0 0 0 M .007 -8.469 C -.366 -8.469 -.744 -8.429 -1.123 -8.344 C -2.471 -8.042 -3.622 -7.233 -4.361 -6.066 C -5.102 -4.9 -5.343 -3.515 -5.042 -2.167 C -4.419 .617 -1.648 2.379 1.135 1.752 C 2.484 1.451 3.634 .642 4.374 -.525 C 5.114 -1.691 5.355 -3.077 5.054 -4.425 C 4.516 -6.829 2.375 -8.469 .007 -8.469 " fill="#171843"/>
<path transform="matrix(1,0,0,-1,110.6347,83.38141)" d="M 0 0 C -.758 -3.388 -4.119 -5.521 -7.508 -4.763 C -10.896 -4.004 -13.028 -.643 -12.271 2.746 C -11.512 6.134 -8.151 8.266 -4.762 7.508 C -1.374 6.75 .758 3.389 0 0 " fill="#3d498c"/>
<path transform="matrix(1,0,0,-1,104.4892,76.658809)" d="M 0 0 C -1.002 0 -1.987 -.284 -2.854 -.834 C -4.061 -1.599 -4.897 -2.788 -5.208 -4.182 C -5.853 -7.06 -4.035 -9.925 -1.157 -10.568 C .238 -10.882 1.669 -10.631 2.875 -9.866 C 4.082 -9.101 4.918 -7.912 5.229 -6.518 C 5.874 -3.64 4.056 -.775 1.178 -.131 C .786 -.043 .392 0 0 0 M .025 -12.578 C -.505 -12.578 -1.038 -12.52 -1.567 -12.401 C -5.456 -11.531 -7.912 -7.66 -7.042 -3.772 C -6.62 -1.889 -5.491 -.282 -3.86 .752 C -2.23 1.786 -.294 2.124 1.588 1.702 C 3.472 1.281 5.079 .151 6.112 -1.479 C 7.146 -3.109 7.483 -5.044 7.062 -6.927 C 6.641 -8.811 5.511 -10.418 3.881 -11.452 C 2.709 -12.195 1.38 -12.578 .025 -12.578 " fill="#171843"/>
<path transform="matrix(1,0,0,-1,107.6635,82.71641)" d="M 0 0 C -.391 -1.748 -2.125 -2.847 -3.872 -2.456 C -5.619 -2.065 -6.719 -.332 -6.328 1.416 C -5.937 3.163 -4.204 4.263 -2.456 3.872 C -.708 3.481 .391 1.747 0 0 " fill="#3d498c"/>
<path transform="matrix(1,0,0,-1,104.496,79.704708)" d="M 0 0 C -.432 0 -.856 -.122 -1.23 -.359 C -1.75 -.689 -2.11 -1.201 -2.244 -1.801 C -2.521 -3.04 -1.739 -4.274 -.499 -4.551 C .1 -4.688 .718 -4.578 1.237 -4.249 C 1.757 -3.919 2.117 -3.407 2.251 -2.807 C 2.528 -1.567 1.746 -.334 .506 -.056 C .338 -.018 .168 0 0 0 M .012 -6.486 C -.294 -6.486 -.603 -6.453 -.909 -6.384 C -1.999 -6.14 -2.929 -5.486 -3.527 -4.543 C -4.125 -3.6 -4.32 -2.481 -4.077 -1.391 C -3.833 -.301 -3.179 .628 -2.236 1.227 C -1.292 1.824 -.172 2.02 .917 1.777 C 3.167 1.273 4.587 -.968 4.084 -3.217 C 3.84 -4.307 3.187 -5.237 2.243 -5.834 C 1.565 -6.265 .795 -6.486 .012 -6.486 " fill="#171843"/>
<path transform="matrix(1,0,0,-1,108.06,128.09581)" d="M 0 0 L -.895 15.438 C -.912 17.74 .941 19.619 3.243 19.637 C 5.545 19.653 7.425 17.801 7.441 15.498 L 6.771 .049 C 6.785 -1.82 5.28 -3.348 3.41 -3.361 C 1.54 -3.375 .013 -1.87 0 0 " fill="#3d498c"/>
<path transform="matrix(1,0,0,-1,111.3344,109.398509)" d="M 0 0 L -.025 0 C -1.805 -.013 -3.244 -1.473 -3.231 -3.253 L -2.338 -18.643 C -2.336 -18.658 -2.336 -18.675 -2.336 -18.689 C -2.325 -20.04 -1.177 -21.175 .129 -21.119 C .783 -21.114 1.396 -20.855 1.854 -20.39 C 2.313 -19.925 2.563 -19.309 2.558 -18.655 L 3.229 -3.158 C 3.222 -2.344 2.88 -1.534 2.266 -.93 C 1.658 -.329 .854 0 0 0 M .111 -22.997 C -2.251 -22.997 -4.183 -21.092 -4.214 -18.729 L -5.107 -3.314 C -5.119 -1.902 -4.597 -.616 -3.639 .355 C -2.681 1.328 -1.403 1.868 -.038 1.878 C 1.335 1.856 2.612 1.365 3.584 .408 C 4.556 -.549 5.096 -1.828 5.106 -3.192 L 4.436 -18.689 C 4.445 -19.796 4.002 -20.886 3.191 -21.709 C 2.38 -22.531 1.297 -22.989 .143 -22.997 Z " fill="#171843"/>
<path transform="matrix(1,0,0,-1,111.3637,116.796009)" d="M 0 0 C 2.302 .017 4.155 1.896 4.138 4.198 C 4.121 6.501 2.241 8.354 -.061 8.337 C -2.363 8.319 -4.216 6.44 -4.199 4.138 C -4.182 1.836 -2.302 -.017 0 0 " fill="#3d498c"/>
<path transform="matrix(1,0,0,-1,111.3344,109.398509)" d="M 0 0 L -.025 0 C -1.805 -.013 -3.244 -1.473 -3.231 -3.253 C -3.217 -5.025 -1.771 -6.459 -.002 -6.459 L .022 -6.459 C .885 -6.452 1.693 -6.11 2.299 -5.496 C 2.904 -4.882 3.234 -4.068 3.228 -3.206 C 3.222 -2.344 2.88 -1.534 2.266 -.93 C 1.658 -.329 .854 0 0 0 M -.003 -8.337 C -2.801 -8.337 -5.088 -6.07 -5.109 -3.267 C -5.129 -.45 -2.854 1.857 -.038 1.878 C 1.335 1.856 2.612 1.365 3.584 .408 C 4.556 -.549 5.096 -1.828 5.106 -3.192 C 5.116 -4.557 4.594 -5.843 3.636 -6.814 C 2.679 -7.786 1.4 -8.327 .036 -8.337 Z " fill="#171843"/>
<path transform="matrix(1,0,0,-1,118.6953,142.3302)" d="M 0 0 L -.131 18.049 C -.134 18.399 -.42 18.683 -.771 18.68 L -13.792 18.585 C -14.143 18.582 -14.425 18.296 -14.423 17.945 L -14.348 7.625 C -14.314 3.006 -10.542 -.712 -5.922 -.679 L -.631 -.641 C -.28 -.638 .003 -.352 0 0 " fill="#3d498c"/>
<path transform="matrix(1,0,0,-1,117.8974,142.0323)" d="M 0 0 Z M -12.684 17.351 L -12.626 9.442 C -12.608 6.896 -11.599 4.509 -9.785 2.721 C -7.971 .934 -5.545 .002 -3.023 -.022 L -.144 -.002 L -.27 17.44 Z M -3.095 -1.9 C -6.112 -1.901 -8.953 -.736 -11.104 1.383 C -13.274 3.522 -14.482 6.38 -14.504 9.429 L -14.563 17.48 C -14.57 18.437 -13.797 19.221 -12.841 19.228 L -.14 19.319 C .354 19.275 .76 19.146 1.09 18.82 C 1.419 18.495 1.604 18.061 1.606 17.598 L 1.736 -.131 C 1.739 -.594 1.562 -1.031 1.237 -1.361 C .912 -1.691 .477 -1.875 .014 -1.879 L -3.01 -1.9 Z " fill="#171843"/>
<path transform="matrix(1,0,0,-1,33.5234,76.139308)" d="M 0 0 L 10.3 -16.565 L 6.931 -19.105 L 2.472 -13.189 L -5.602 -19.275 L -1.142 -25.191 L -4.511 -27.73 L -17.6 -13.267 C -20.676 -9.869 -18.968 -3.742 -13.875 .098 C -8.781 3.938 -2.42 3.892 0 0 " fill="#3d498c"/>
<path transform="matrix(1,0,0,-1,27.5034,74.127109)" d="M 0 0 C -2.381 0 -5.009 -.945 -7.289 -2.665 C -10.065 -4.756 -11.88 -7.659 -12.143 -10.429 C -12.302 -12.104 -11.866 -13.564 -10.884 -14.649 L 1.629 -28.476 L 3.563 -27.019 L -.332 -21.854 C -.643 -21.438 -.561 -20.85 -.146 -20.537 L 7.927 -14.452 C 8.125 -14.301 8.371 -14.234 8.623 -14.271 C 8.87 -14.307 9.092 -14.438 9.243 -14.636 L 13.136 -19.802 L 15.069 -18.345 L 5.223 -2.508 C 4.45 -1.265 3.167 -.445 1.512 -.136 C 1.023 -.045 .517 0 0 0 M 1.509 -30.682 C 1.252 -30.682 .997 -30.576 .812 -30.373 L -12.276 -15.91 C -13.622 -14.423 -14.223 -12.466 -14.012 -10.251 C -13.7 -6.966 -11.609 -3.569 -8.42 -1.164 C -5.229 1.24 -1.388 2.313 1.856 1.71 C 4.043 1.303 5.758 .187 6.817 -1.516 L 17.117 -18.082 C 17.374 -18.495 17.273 -19.035 16.886 -19.328 L 13.517 -21.867 C 13.101 -22.177 12.513 -22.096 12.202 -21.683 L 8.308 -16.517 L 1.734 -21.473 L 5.628 -26.638 C 5.778 -26.837 5.843 -27.087 5.808 -27.334 C 5.773 -27.58 5.642 -27.803 5.443 -27.953 L 2.074 -30.493 C 1.906 -30.619 1.707 -30.682 1.509 -30.682 " fill="#171843"/>
<path transform="matrix(1,0,0,-1,37.7392,102.68861)" d="M 0 0 L -4.113 5.456 L -1.322 7.56 L 2.791 2.104 L 5.582 4.208 L 16.395 -10.136 L 13.604 -12.24 L 10.812 -14.344 L 8.021 -16.447 L -2.792 -2.104 Z " fill="#3d498c"/>
<path transform="matrix(1,0,0,-1,36.2626,104.97761)" d="M 0 0 L 9.682 -12.844 L 16.556 -7.662 L 6.875 5.183 L 4.833 3.643 C 4.634 3.493 4.387 3.43 4.137 3.463 C 3.89 3.498 3.667 3.629 3.517 3.827 L -.03 8.534 L -1.321 7.561 L 2.226 2.854 C 2.376 2.655 2.441 2.405 2.406 2.159 C 2.372 1.912 2.241 1.689 2.042 1.539 Z M 9.498 -15.098 C 9.454 -15.098 9.411 -15.095 9.367 -15.089 C 9.12 -15.054 8.898 -14.923 8.748 -14.725 L -2.065 -.381 C -2.377 .034 -2.294 .623 -1.88 .936 L .162 2.474 L -3.386 7.18 C -3.537 7.379 -3.601 7.629 -3.566 7.875 C -3.532 8.122 -3.401 8.345 -3.202 8.495 L -.411 10.6 C -.212 10.75 .035 10.814 .286 10.779 C .532 10.744 .755 10.613 .905 10.415 L 4.452 5.708 L 6.494 7.247 C 6.692 7.397 6.941 7.462 7.189 7.427 C 7.436 7.393 7.659 7.262 7.809 7.062 L 18.622 -7.281 C 18.933 -7.695 18.851 -8.284 18.437 -8.597 L 10.063 -14.909 C 9.899 -15.032 9.701 -15.098 9.498 -15.098 " fill="#171843"/>
<path transform="matrix(1,0,0,-1,57.9697,129.6212)" d="M 0 0 L 2.951 2.225 C 5.602 4.225 6.131 7.994 4.132 10.646 L -1.711 18.398 L -14.266 8.935 L -8.421 1.182 C -6.422 -1.47 -2.652 -1.999 0 0 " fill="#3d498c"/>
<path transform="matrix(1,0,0,-1,59.1801,128.7081)" d="M 0 0 L .012 0 Z M -14.161 7.837 L -9.794 2.046 C -8.735 .64 -7.192 -.27 -5.448 -.515 C -3.708 -.757 -1.971 -.311 -.565 .75 L -.565 .749 L -.036 1.148 C 2.866 3.336 3.447 7.477 1.259 10.378 L -3.106 16.17 Z M -4.515 -2.458 C -4.912 -2.458 -5.311 -2.431 -5.709 -2.374 C -7.95 -2.06 -9.933 -.892 -11.295 .915 L -16.226 7.456 C -16.538 7.871 -16.455 8.46 -16.042 8.772 L -3.487 18.235 C -3.289 18.386 -3.041 18.45 -2.791 18.415 C -2.544 18.38 -2.322 18.249 -2.171 18.051 L 2.76 11.509 C 4.121 9.702 4.698 7.474 4.383 5.234 C 4.068 2.994 2.901 1.011 1.095 -.351 L .565 -.75 C -.919 -1.869 -2.689 -2.458 -4.515 -2.458 " fill="#171843"/>
<path transform="matrix(1,0,0,-1,160.5444,104.6573)" d="M 0 0 C 0 .449 -.364 .812 -.812 .812 L -5.225 .812 L -5.225 .808 C -8.266 .766 -10.277 -1.512 -10.277 -4.882 C -10.277 -8.249 -8.229 -10.507 -5.139 -10.507 C -2.083 -10.507 0 -8.249 0 -4.847 Z M .812 12.86 L 3.909 12.86 C 4.358 12.86 4.722 12.497 4.722 12.048 L 4.722 -13.409 C 4.722 -13.858 4.358 -14.222 3.909 -14.222 L .957 -14.222 C .52 -14.222 .161 -13.876 .145 -13.438 C .119 -12.748 -.689 -12.42 -1.214 -12.87 C -2.474 -13.955 -4.137 -14.568 -6.215 -14.568 C -11.284 -14.568 -15.173 -10.715 -15.173 -4.951 C -15.173 .916 -11.284 4.84 -6.215 4.84 C -6.205 4.84 -6.195 4.839 -6.185 4.839 L -6.186 4.84 L -.812 4.84 C -.364 4.84 0 5.203 0 5.652 L 0 12.048 C 0 12.497 .364 12.86 .812 12.86 " fill="#efeae6"/>
<path transform="matrix(1,0,0,-1,168.0981,101.2628)" d="M 0 0 C 0 .606 .492 1.099 1.098 1.099 L 3.624 1.099 C 4.23 1.099 4.723 .606 4.723 0 L 4.723 -9.908 C 4.723 -12.355 6.39 -13.97 8.91 -13.898 C 11.051 -13.838 12.742 -12.05 12.742 -9.908 L 12.742 0 C 12.742 .606 13.234 1.099 13.841 1.099 L 16.367 1.099 C 16.973 1.099 17.464 .606 17.464 0 L 17.464 -10.151 C 17.464 -14.839 13.993 -17.963 8.75 -17.963 C 3.472 -17.963 0 -14.839 0 -10.151 Z " fill="#efeae6"/>
<path transform="matrix(1,0,0,-1,194.3046,104.01871)" d="M 0 0 C -.269 0 -.486 -.218 -.486 -.486 L -.486 -14.373 C -.486 -14.643 -.704 -14.86 -.974 -14.86 L -4.722 -14.86 C -4.991 -14.86 -5.209 -14.643 -5.209 -14.373 L -5.209 -.486 C -5.209 -.218 -5.427 0 -5.696 0 L -8.645 0 C -8.914 0 -9.132 .218 -9.132 .486 L -9.132 3.368 C -9.132 3.637 -8.914 3.854 -8.645 3.854 L -5.696 3.854 C -5.427 3.854 -5.209 4.072 -5.209 4.341 L -5.209 6.235 C -5.209 6.504 -4.991 6.722 -4.722 6.722 L -.974 6.722 C -.704 6.722 -.486 6.504 -.486 6.235 L -.486 4.341 C -.486 4.072 -.269 3.854 0 3.854 L 3.019 3.854 C 3.289 3.854 3.506 3.637 3.506 3.368 L 3.506 .486 C 3.506 .218 3.289 0 3.019 0 Z " fill="#efeae6"/>
<path transform="matrix(1,0,0,-1,210.3305,108.0118)" d="M 0 0 C .42 0 .742 .389 .653 .799 C .138 3.15 -1.301 4.479 -3.587 4.479 C -5.839 4.479 -7.246 3.156 -7.782 .812 C -7.877 .398 -7.556 0 -7.131 0 Z M 5.679 -2.597 C 5.646 -2.937 5.358 -3.193 5.018 -3.193 L -7.13 -3.193 C -7.555 -3.193 -7.878 -3.592 -7.781 -4.005 C -7.269 -6.169 -5.899 -7.499 -3.449 -7.499 C -1.542 -7.499 .019 -6.633 1.13 -5.281 L 1.129 -5.279 L 1.132 -5.279 C 1.133 -5.278 1.133 -5.277 1.134 -5.277 L 1.139 -5.279 L 4.515 -5.279 C 4.966 -5.279 5.297 -5.727 5.148 -6.152 C 3.307 -11.414 -3.379 -11.214 -3.379 -11.214 C -9.108 -11.214 -12.927 -7.395 -12.927 -1.631 C -12.927 4.271 -9.213 8.194 -3.587 8.194 C 2.002 8.194 5.752 4.444 5.752 -1.215 C 5.752 -1.66 5.721 -2.153 5.679 -2.597 " fill="#efeae6"/>
<path transform="matrix(1,0,0,-1,220.5849,109.504009)" d="M 0 0 C 0 -3.315 2.047 -5.537 5.139 -5.649 L 10.592 -5.658 C 11.114 -5.659 11.537 -6.082 11.537 -6.604 L 11.537 -8.746 C 11.537 -9.267 11.118 -9.689 10.598 -9.692 C 8.86 -9.702 5.306 -9.722 5.139 -9.722 C -.868 -9.722 -4.896 -5.833 -4.896 0 C -4.896 5.798 -.868 9.687 5.139 9.687 L 10.591 9.687 C 11.113 9.687 11.537 9.263 11.537 8.74 L 11.537 6.604 C 11.537 6.082 11.114 5.659 10.592 5.657 L 5.139 5.648 C 2.047 5.536 0 3.315 0 0 " fill="#efeae6"/>
<path transform="matrix(1,0,0,-1,188.935,54.1886)" d="M 0 0 C -1.69 -.049 -2.886 -1.265 -2.84 -2.889 C -2.804 -4.213 -1.413 -5.647 -.159 -5.528 C 2.144 -5.31 2.939 -4.662 2.949 -2.294 C 2.953 -1.301 1.615 .156 0 0 M -13.504 -8.839 C -13.568 -10.519 -11.938 -11.793 -10.672 -11.745 C -8.745 -11.67 -7.414 -10.39 -7.589 -8.581 C -7.724 -7.187 -8.708 -5.801 -10.598 -5.866 C -12.253 -5.922 -13.552 -7.246 -13.504 -8.839 M -15.35 -8.651 C -15.485 -6.214 -12.991 -3.664 -10.005 -4.041 C -9.428 -4.113 -8.862 -4.278 -8.292 -4.4 C -6.549 -4.776 -5.363 -3.976 -4.899 -2.249 C -4.373 -.29 -3.362 1.293 -1.255 1.854 C 1.033 2.463 2.78 1.665 4.08 .022 C 5.645 -1.954 5.021 -5.188 2.926 -6.635 C 1.749 -7.447 .393 -7.752 -1.08 -7.406 C -1.778 -7.241 -2.52 -7.2 -3.242 -7.203 C -4.498 -7.207 -5.114 -8.027 -5.514 -9.089 C -5.783 -9.803 -6.038 -10.529 -6.382 -11.208 C -7.33 -13.078 -8.996 -13.646 -10.971 -13.548 C -13.263 -13.435 -15.498 -11.423 -15.35 -8.651 " fill="#3abeb7"/>
<path transform="matrix(1,0,0,-1,197.7065,61.147104)" d="M 0 0 C -.813 -1.467 -.361 -3.104 1.076 -3.889 C 2.247 -4.528 4.201 -4.068 4.733 -2.938 C 5.71 -.862 5.549 .145 3.493 1.354 C 2.63 1.861 .684 1.457 0 0 M .851 -16.006 C 2.282 -16.911 4.217 -16.166 4.816 -15.061 C 5.729 -13.379 5.289 -11.594 3.624 -10.826 C 2.342 -10.235 .637 -10.372 -.265 -12.018 C -1.054 -13.459 -.561 -15.239 .851 -16.006 M -.248 -17.485 C -2.438 -16.365 -3.395 -12.944 -1.553 -10.586 C -1.197 -10.131 -.768 -9.732 -.372 -9.307 C .839 -8.01 .744 -6.593 -.525 -5.321 C -1.964 -3.879 -2.83 -2.214 -2.25 -.131 C -1.621 2.13 -.04 3.216 2.048 3.493 C 4.563 3.827 7.062 1.656 7.26 -.866 C 7.371 -2.283 6.949 -3.594 5.901 -4.675 C 5.404 -5.188 4.992 -5.8 4.628 -6.418 C 3.995 -7.492 4.397 -8.434 5.119 -9.313 C 5.604 -9.905 6.106 -10.49 6.523 -11.128 C 7.671 -12.884 7.322 -14.594 6.235 -16.23 C 4.975 -18.129 2.091 -19.016 -.248 -17.485 " fill="#3abeb7"/>
<path transform="matrix(1,0,0,-1,176.2338,76.847309)" d="M 0 0 C .902 -1.417 2.567 -1.818 3.957 -.954 C 5.09 -.25 5.63 1.665 4.89 2.674 C 3.53 4.526 2.562 4.875 .498 3.681 C -.369 3.179 -.956 1.298 0 0 M 14.553 -7.022 C 16.046 -6.222 16.326 -4.186 15.641 -3.13 C 14.597 -1.524 12.806 -1.041 11.321 -2.11 C 10.178 -2.933 9.473 -4.476 10.49 -6.055 C 11.38 -7.437 13.191 -7.873 14.553 -7.022 M 15.328 -8.691 C 13.276 -10.045 9.791 -9.214 8.6 -6.477 C 8.37 -5.948 8.226 -5.382 8.043 -4.833 C 7.484 -3.157 6.185 -2.552 4.447 -3.034 C 2.476 -3.581 .584 -3.524 -.975 -2.013 C -2.667 -.371 -2.86 1.524 -2.093 3.467 C -1.169 5.806 1.961 6.918 4.285 5.867 C 5.59 5.276 6.544 4.274 6.991 2.843 C 7.203 2.164 7.544 1.511 7.914 .896 C 8.555 -.172 9.583 -.281 10.709 -.083 C 11.467 .051 12.228 .203 12.994 .254 C 15.102 .397 16.443 -.734 17.362 -2.468 C 18.428 -4.48 17.814 -7.408 15.328 -8.691 " fill="#3abeb7"/>
</g>
</g>
</g>
</svg>
