<svg width="155" height="171" viewBox="0 0 155 171" fill="none" xmlns="http://www.w3.org/2000/svg"><path d="M1.00035 53.8003C0.340348 41.5603 12.5404 28.8003 27.1604 30.6503C29.9804 31.0103 32.7504 31.8403 35.5404 32.4603C44.0704 34.3403 49.8704 30.3303 52.1404 21.6603C54.7204 11.8203 59.6603 3.87028 69.9703 1.06028C81.1703 -1.99972 89.7204 2.01029 96.0804 10.2503C103.74 20.1703 100.69 36.4103 90.4404 43.6703C87.6619 45.7266 84.4616 47.1404 81.0704 47.8097C77.6791 48.4789 74.1817 48.3869 70.8304 47.5403C67.3554 46.7913 63.8041 46.4556 60.2503 46.5403C54.1103 46.5403 51.0904 50.6903 49.1304 56.0103C47.9096 59.6321 46.4908 63.1841 44.8804 66.6503C40.2504 76.0403 32.1003 78.8903 22.4303 78.4003C11.1703 77.8103 0.240348 67.7103 1.00035 53.8003ZM10.0003 54.7403C9.69035 63.1703 17.6703 69.5703 23.8603 69.3203C33.2903 68.9503 39.8004 62.5203 38.9504 53.4403C38.2904 46.4403 33.4703 39.4903 24.2203 39.8103C20.3575 39.9125 16.6925 41.5408 14.0274 44.339C11.3624 47.1371 9.91436 50.877 10.0003 54.7403ZM76.0904 10.3603C67.8204 10.6103 61.9703 16.7203 62.1903 24.8703C62.3703 31.5203 69.1903 38.7103 75.3103 38.1203C86.5804 37.0203 90.4704 33.7703 90.5204 21.8803C90.5304 16.9003 84.0004 9.58027 76.0804 10.3603H76.0904Z" fill="#3FBCB8"/><path d="M117.789 133.08C107.069 127.46 102.389 110.28 111.399 98.4503C113.139 96.1603 115.249 94.1503 117.189 92.0203C123.109 85.5103 122.639 78.3903 116.429 72.0203C109.429 64.7803 105.149 56.4203 107.989 45.9703C111.069 34.6103 118.809 29.1603 128.989 27.7703C141.289 26.1003 153.529 37.0003 154.489 49.6603C154.825 53.1383 154.405 56.6478 153.257 59.9481C152.109 63.2483 150.261 66.2613 147.839 68.7803C145.429 71.4443 143.338 74.3809 141.609 77.5303C138.509 82.9203 140.479 87.6503 144.009 92.0603C146.467 94.9728 148.764 98.0173 150.889 101.18C156.499 109.99 154.799 118.58 149.479 126.79C147.815 129.288 145.673 131.432 143.178 133.101C140.684 134.769 137.884 135.929 134.94 136.513C131.996 137.097 128.966 137.095 126.022 136.506C123.079 135.917 120.282 134.753 117.789 133.08ZM123.169 125.65C130.169 130.2 139.639 126.46 142.569 120.91C147.039 112.46 144.879 103.5 136.739 99.6503C130.469 96.6503 122.119 97.3703 117.739 105.65C113.839 112.87 116.259 121.8 123.169 125.65ZM118.999 45.3003C114.999 52.6603 117.239 60.8803 124.269 64.8203C129.999 68.0303 139.559 65.7203 142.159 60.0503C146.949 49.6303 146.159 44.5703 136.099 38.5003C131.869 36.0003 122.349 38.0003 118.999 45.3003Z" fill="#3FBCB8"/><path d="M88.9297 167.75C78.9297 174.54 61.8297 170.38 56.0097 156.63C54.8797 153.98 54.1797 151.14 53.2797 148.38C50.5397 139.96 44.1897 136.93 35.6797 139.38C26.0297 142.13 16.7797 141.84 9.14969 134.25C0.869693 126.01 -0.080308 116.5 3.67969 106.74C8.19969 95.0002 23.5197 89.4202 34.8897 94.7402C38.0689 96.151 40.9012 98.2397 43.1883 100.86C45.4754 103.481 47.1619 106.569 48.1297 109.91C49.2531 113.334 50.7699 116.616 52.6497 119.69C55.7897 125.05 60.8197 125.6 66.3297 124.6C70.0229 123.834 73.7551 123.27 77.5097 122.91C87.8197 122.19 94.3897 127.91 98.8797 136.58C101.581 142.053 102.054 148.36 100.198 154.174C98.3421 159.988 94.3024 164.855 88.9297 167.75ZM85.1397 159.37C92.4497 155.37 93.8197 145.13 90.4597 139.83C85.3497 131.77 76.5897 129.34 69.3297 134.71C63.7297 138.84 60.2797 146.59 65.2497 154.52C66.2272 156.155 67.5201 157.58 69.0531 158.711C70.5862 159.842 72.3288 160.657 74.1796 161.108C76.0305 161.559 77.9526 161.638 79.8342 161.34C81.7157 161.041 83.5192 160.372 85.1397 159.37ZM13.9197 124.12C18.3397 131.23 26.4897 133.24 33.2897 128.91C38.8297 125.37 41.4697 115.76 37.8497 110.69C31.1897 101.39 26.4597 99.6402 16.3597 105.64C12.1097 108.16 9.23971 117.6 13.9197 124.12Z" fill="#3FBCB8"/></svg>