<svg width="595" height="176" viewBox="0 0 595 176" fill="none" xmlns="http://www.w3.org/2000/svg">
<path d="M259.089 12H273.259C274.244 12 275.189 12.3906 275.886 13.086C276.584 13.7815 276.977 14.7251 276.979 15.71V132.18C276.979 133.167 276.588 134.113 275.89 134.81C275.192 135.508 274.246 135.9 273.259 135.9H259.749C258.787 135.901 257.861 135.528 257.167 134.86C256.474 134.193 256.066 133.282 256.029 132.32C255.999 131.615 255.768 130.933 255.365 130.353C254.961 129.774 254.401 129.322 253.75 129.049C253.098 128.777 252.383 128.695 251.687 128.814C250.991 128.932 250.343 129.247 249.819 129.72C244.049 134.72 236.439 137.49 226.939 137.49C203.749 137.49 185.939 119.86 185.939 93.49C185.939 66.64 203.729 48.69 226.939 48.69H251.659C252.643 48.69 253.587 48.2991 254.283 47.6034C254.979 46.9076 255.369 45.964 255.369 44.98V15.71C255.372 14.7251 255.765 13.7815 256.463 13.086C257.16 12.3906 258.105 12 259.089 12V12ZM255.369 70.83C255.369 69.846 254.979 68.9024 254.283 68.2066C253.587 67.5109 252.643 67.12 251.659 67.12H231.469C217.549 67.31 208.349 77.73 208.349 93.12C208.349 108.51 217.729 118.85 231.859 118.85C245.989 118.85 255.369 108.53 255.369 92.96V70.83Z" fill="#F4F0ED"/>
<path d="M289.899 55.2998C289.899 53.9737 290.426 52.7019 291.364 51.7642C292.301 50.8265 293.573 50.2998 294.899 50.2998H306.449C307.775 50.2998 309.047 50.8265 309.985 51.7642C310.922 52.7019 311.449 53.9737 311.449 55.2998V100.64C311.449 111.83 319.069 119.22 330.599 118.89C335.319 118.719 339.788 116.719 343.061 113.313C346.334 109.908 348.155 105.363 348.139 100.64V55.2998C348.139 53.9737 348.666 52.7019 349.604 51.7642C350.541 50.8265 351.813 50.2998 353.139 50.2998H364.699C366.025 50.2998 367.297 50.8265 368.235 51.7642C369.172 52.7019 369.699 53.9737 369.699 55.2998V101.77C369.699 123.21 353.819 137.51 329.829 137.51C305.839 137.51 289.829 123.21 289.829 101.77L289.899 55.2998Z" fill="#F4F0ED"/>
<path d="M409.83 67.9092C409.238 67.9092 408.671 68.1441 408.253 68.5623C407.835 68.9805 407.6 69.5477 407.6 70.1392V133.669C407.601 133.962 407.545 134.251 407.434 134.522C407.323 134.792 407.159 135.038 406.953 135.245C406.747 135.453 406.502 135.617 406.232 135.729C405.962 135.841 405.672 135.899 405.38 135.899H388.22C387.927 135.899 387.638 135.841 387.368 135.729C387.098 135.617 386.853 135.453 386.646 135.245C386.44 135.038 386.277 134.792 386.166 134.522C386.055 134.251 385.998 133.962 386 133.669V70.1392C386 69.5477 385.765 68.9805 385.347 68.5623C384.928 68.1441 384.361 67.9092 383.77 67.9092H370.28C369.987 67.9105 369.698 67.854 369.427 67.743C369.157 67.6321 368.911 67.4688 368.704 67.2625C368.496 67.0562 368.332 66.811 368.22 66.541C368.108 66.271 368.05 65.9815 368.05 65.6891V52.4991C368.052 51.9094 368.289 51.3448 368.706 50.9288C369.124 50.5127 369.69 50.2792 370.28 50.2792H383.77C384.361 50.2792 384.928 50.0442 385.347 49.626C385.765 49.2078 386 48.6406 386 48.0492V39.3892C385.998 39.0968 386.055 38.8071 386.166 38.5366C386.277 38.2661 386.44 38.0201 386.646 37.8129C386.853 37.6057 387.098 37.4413 387.368 37.3291C387.638 37.2169 387.927 37.1592 388.22 37.1592H405.38C405.672 37.1592 405.962 37.2169 406.232 37.3291C406.502 37.4413 406.747 37.6057 406.953 37.8129C407.159 38.0201 407.323 38.2661 407.434 38.5366C407.545 38.8071 407.601 39.0968 407.6 39.3892V48.0492C407.6 48.6406 407.835 49.2078 408.253 49.626C408.671 50.0442 409.238 50.2792 409.83 50.2792H423.64C424.229 50.2792 424.795 50.5127 425.213 50.9288C425.631 51.3448 425.867 51.9094 425.87 52.4991V65.6891C425.87 65.9815 425.812 66.271 425.7 66.541C425.588 66.811 425.423 67.0562 425.216 67.2625C425.009 67.4688 424.763 67.6321 424.492 67.743C424.222 67.854 423.932 67.9105 423.64 67.9092H409.83Z" fill="#F4F0ED"/>
<path d="M509.13 98.0597C509.062 98.8077 508.716 99.5031 508.161 100.009C507.605 100.514 506.881 100.793 506.13 100.79H450.53C450.07 100.786 449.616 100.886 449.2 101.083C448.785 101.279 448.419 101.567 448.131 101.925C447.842 102.283 447.638 102.701 447.534 103.148C447.43 103.596 447.429 104.061 447.53 104.51C449.87 114.41 456.14 120.51 467.35 120.51C471.383 120.52 475.366 119.611 478.996 117.852C482.626 116.094 485.807 113.531 488.3 110.36H503.8C504.286 110.348 504.767 110.455 505.203 110.67C505.638 110.886 506.015 111.204 506.3 111.598C506.586 111.992 506.771 112.448 506.841 112.93C506.91 113.411 506.862 113.901 506.7 114.36C498.28 138.43 467.7 137.52 467.7 137.52C441.49 137.52 424.02 120.05 424.02 93.6797C424.02 66.6797 441.02 48.6797 466.75 48.6797C492.32 48.6797 509.47 65.8397 509.47 91.7297C509.46 93.7697 509.32 96.0297 509.13 98.0597ZM483.13 86.1797C483.585 86.1905 484.036 86.0977 484.45 85.9081C484.864 85.7185 485.23 85.4372 485.519 85.0854C485.808 84.7337 486.013 84.3209 486.119 83.8781C486.225 83.4352 486.228 82.9742 486.13 82.5297C483.77 71.7697 477.19 65.6897 466.73 65.6897C456.27 65.6897 450 71.7697 447.55 82.4597C447.449 82.908 447.45 83.3733 447.554 83.8209C447.658 84.2685 447.862 84.6867 448.151 85.0444C448.439 85.4021 448.805 85.6901 449.22 85.8867C449.636 86.0832 450.09 86.1834 450.55 86.1797H483.13Z" fill="#F4F0ED"/>
<path d="M530.059 93.0094C530.059 108.179 539.429 118.339 553.569 118.849H578.569C579.717 118.852 580.817 119.309 581.628 120.121C582.44 120.932 582.897 122.032 582.899 123.179V132.979C582.902 134.123 582.451 135.222 581.645 136.034C580.839 136.845 579.743 137.304 578.599 137.309L553.599 137.449C526.119 137.449 507.689 119.659 507.689 92.9694C507.689 66.4394 526.119 48.6494 553.599 48.6494H578.599C579.748 48.6494 580.849 49.1056 581.661 49.9177C582.473 50.7297 582.93 51.831 582.93 52.9794V62.7694C582.927 63.917 582.47 65.0168 581.658 65.8282C580.847 66.6397 579.747 67.0968 578.599 67.0994H553.599C539.429 67.6794 530.059 77.8394 530.059 93.0094Z" fill="#F4F0ED"/>
<path d="M12.0294 62.3398C11.4394 51.7498 22.2793 40.6598 35.2593 42.3398C37.7693 42.6498 40.2593 43.3398 42.7093 43.8998C50.2793 45.5398 55.4393 42.0598 57.4593 34.5498C59.7393 26.0398 64.1394 19.1498 73.2894 16.7198C83.2394 14.0698 90.8293 17.5398 96.4793 24.7198C103.289 33.3098 100.579 47.3698 91.4793 53.6498C88.9936 55.4366 86.1491 56.6617 83.1429 57.2401C80.1367 57.8185 77.0407 57.7365 74.0694 56.9997C70.9803 56.3459 67.8261 56.0506 64.6693 56.1197C59.2093 56.1197 56.5294 59.7098 54.7894 64.3198C53.6987 67.4551 52.4402 70.5296 51.0193 73.5298C46.8993 81.6598 39.6593 84.1298 31.0193 83.6998C25.6783 83.3597 20.6873 80.9251 17.1313 76.9253C13.5753 72.9256 11.7418 67.684 12.0294 62.3398V62.3398ZM20.0294 63.1598C19.7594 70.4598 26.8394 75.9898 32.3394 75.7798C40.7194 75.4598 46.4993 69.8998 45.7393 62.0298C45.1593 55.9698 40.8793 49.9498 32.6593 50.2298C29.275 50.2798 26.0482 51.6683 23.685 54.0915C21.3218 56.5146 20.0146 59.7752 20.0493 63.1598H20.0294ZM78.7494 24.7698C71.3994 24.9898 66.2093 30.2698 66.3993 37.3298C66.5593 43.0898 72.6093 49.3298 78.0593 48.7998C88.0593 47.7998 91.5294 45.0398 91.5694 34.7998C91.5894 30.3898 85.7694 24.0598 78.7494 24.7698Z" fill="#3FBCB8"/>
<path d="M115.8 130.979C106.28 126.109 102.12 111.249 110.13 100.979C111.67 98.9794 113.54 97.2594 115.26 95.4194C120.52 89.7794 120.11 83.6194 114.6 78.0894C108.34 71.8194 104.6 64.5794 107.09 55.5294C109.83 45.6994 116.7 40.9794 125.78 39.7794C136.71 38.3294 147.58 47.7794 148.43 58.7794C148.725 61.8022 148.349 64.8527 147.329 67.7135C146.309 70.5743 144.67 73.1748 142.53 75.3294C140.388 77.6264 138.528 80.1711 136.99 82.9094C134.24 87.5694 135.99 91.6693 139.13 95.4893C141.304 98.0074 143.34 100.641 145.23 103.379C150.23 111.019 148.7 118.449 143.98 125.559C140.914 129.956 136.254 132.983 130.991 133.995C125.728 135.007 120.277 133.925 115.8 130.979V130.979ZM120.58 124.549C126.79 128.489 135.21 125.249 137.81 120.449C141.81 113.129 139.81 105.379 132.63 102.039C127.06 99.4694 119.63 100.039 115.73 107.219C114.902 108.674 114.37 110.278 114.166 111.939C113.961 113.6 114.088 115.285 114.539 116.896C114.99 118.508 115.756 120.014 116.793 121.328C117.83 122.641 119.117 123.736 120.58 124.549ZM116.9 54.9794C113.36 61.3594 115.33 68.4694 121.57 71.8794C126.66 74.6594 135.16 72.6593 137.47 67.7493C141.72 58.7493 141.02 54.3494 132.08 49.0994C128.31 46.8894 119.9 48.6494 116.9 54.9794Z" fill="#3FBCB8"/>
<path d="M90.1691 161C81.2491 166.88 66.0991 163.28 60.9191 151.38C59.9191 149.08 59.2991 146.62 58.4991 144.23C56.0691 136.95 50.4291 134.32 42.8691 136.41C34.2991 138.79 26.0791 138.54 19.3091 131.97C11.9491 124.84 11.1091 116.6 14.4491 108.16C18.4491 97.99 32.0691 93.16 42.1691 97.72C44.9658 98.9226 47.4652 100.723 49.4916 102.995C51.5181 105.267 53.0225 107.955 53.8991 110.87C54.8962 113.837 56.2387 116.677 57.8991 119.33C60.6891 123.97 65.1591 124.44 70.0491 123.58C73.3305 122.915 76.6453 122.428 79.9791 122.12C89.1391 121.5 94.9791 126.42 98.9791 133.95C101.386 138.707 101.81 144.224 100.159 149.294C98.5081 154.363 94.916 158.572 90.1691 161V161ZM86.7991 153.77C93.2891 150.29 94.5091 141.44 91.5291 136.85C86.9891 129.85 79.2091 127.77 72.7491 132.42C67.7491 135.99 64.7491 142.7 69.1391 149.56C70.9412 152.439 73.803 154.494 77.1069 155.282C80.4108 156.069 83.892 155.526 86.7991 153.77V153.77ZM23.5391 123.25C27.4591 129.4 34.6991 131.14 40.7391 127.39C45.6691 124.33 48.0191 116.01 44.7991 111.62C38.8791 103.57 34.6791 102.05 25.7091 107.25C21.8991 109.41 19.3891 117.58 23.5391 123.23V123.25Z" fill="#3FBCB8"/>
</svg>
