<svg width="4" height="1" viewBox="0 0 4 1" fill="none" xmlns="http://www.w3.org/2000/svg">
<g clip-path="url(#clip0)">
<path d="M1.47378 0.0683594H1.55439C1.56 0.0683594 1.56537 0.0705813 1.56934 0.074538C1.57331 0.0784947 1.57554 0.0838631 1.57556 0.0894663V0.752088C1.57556 0.757701 1.57333 0.763084 1.56936 0.767053C1.56539 0.771022 1.56001 0.773252 1.55439 0.773252H1.47753C1.47206 0.773255 1.46679 0.771135 1.46284 0.767337C1.4589 0.763539 1.45658 0.758358 1.45637 0.752884C1.4562 0.748871 1.45489 0.744991 1.45259 0.741696C1.45029 0.738401 1.4471 0.735827 1.4434 0.734276C1.4397 0.732725 1.43563 0.73226 1.43167 0.732936C1.42771 0.733612 1.42402 0.7354 1.42104 0.738092C1.38821 0.766538 1.34492 0.782297 1.29087 0.782297C1.15894 0.782297 1.05762 0.681997 1.05762 0.531972C1.05762 0.379217 1.15883 0.277096 1.29087 0.277096H1.43151C1.43711 0.277096 1.44248 0.274872 1.44643 0.270914C1.45039 0.266956 1.45262 0.261587 1.45262 0.255989V0.0894663C1.45263 0.0838631 1.45487 0.0784947 1.45883 0.074538C1.4628 0.0705813 1.46818 0.0683594 1.47378 0.0683594ZM1.45262 0.403055C1.45262 0.397457 1.45039 0.392089 1.44643 0.38813C1.44248 0.384172 1.43711 0.381948 1.43151 0.381948H1.31664C1.23745 0.383029 1.18511 0.44231 1.18511 0.529867C1.18511 0.617424 1.23848 0.676251 1.31886 0.676251C1.39925 0.676251 1.45262 0.617538 1.45262 0.528957V0.403055Z" fill="#F4F0ED"/>
<path d="M1.64884 0.314579C1.64884 0.307034 1.65183 0.299799 1.65717 0.294464C1.6625 0.28913 1.66974 0.286133 1.67728 0.286133H1.74299C1.75054 0.286133 1.75777 0.28913 1.76311 0.294464C1.76844 0.299799 1.77144 0.307034 1.77144 0.314579V0.572527C1.77144 0.636189 1.81479 0.678233 1.88039 0.676355C1.90724 0.675381 1.93266 0.664004 1.95129 0.644629C1.96991 0.625255 1.98027 0.599399 1.98017 0.572527V0.314579C1.98017 0.307034 1.98317 0.299799 1.98851 0.294464C1.99384 0.28913 2.00108 0.286133 2.00862 0.286133H2.07439C2.08193 0.286133 2.08917 0.28913 2.0945 0.294464C2.09984 0.299799 2.10283 0.307034 2.10283 0.314579V0.578956C2.10283 0.700933 2.01249 0.782288 1.87601 0.782288C1.73952 0.782288 1.64844 0.700933 1.64844 0.578956L1.64884 0.314579Z" fill="#F4F0ED"/>
<path d="M2.33144 0.386857C2.32808 0.386857 2.32485 0.388194 2.32247 0.390573C2.32009 0.392952 2.31876 0.396179 2.31876 0.399544V0.760979C2.31877 0.762642 2.31844 0.764291 2.31781 0.76583C2.31718 0.767369 2.31625 0.768768 2.31508 0.769947C2.31391 0.771125 2.31251 0.772061 2.31097 0.772699C2.30944 0.773337 2.30779 0.773666 2.30613 0.773666H2.2085C2.20684 0.773666 2.20519 0.773337 2.20365 0.772699C2.20212 0.772061 2.20072 0.771125 2.19955 0.769947C2.19838 0.768768 2.19745 0.767369 2.19682 0.76583C2.19618 0.764291 2.19586 0.762642 2.19587 0.760979V0.399544C2.19587 0.396179 2.19453 0.392952 2.19216 0.390573C2.18978 0.388194 2.18655 0.386857 2.18318 0.386857H2.10644C2.10477 0.386865 2.10312 0.386543 2.10159 0.385912C2.10005 0.38528 2.09865 0.384352 2.09747 0.383178C2.09629 0.382004 2.09535 0.380609 2.09472 0.379073C2.09408 0.377537 2.09375 0.37589 2.09375 0.374227V0.299186C2.09377 0.295831 2.09511 0.292619 2.09749 0.290252C2.09986 0.287885 2.10308 0.286556 2.10644 0.286556H2.18318C2.18655 0.286556 2.18978 0.28522 2.19216 0.282841C2.19453 0.280461 2.19587 0.277234 2.19587 0.27387V0.224601C2.19586 0.222937 2.19618 0.221289 2.19682 0.21975C2.19745 0.218211 2.19838 0.216812 2.19955 0.215633C2.20072 0.214455 2.20212 0.213519 2.20365 0.212881C2.20519 0.212243 2.20684 0.211914 2.2085 0.211914H2.30613C2.30779 0.211914 2.30944 0.212243 2.31097 0.212881C2.31251 0.213519 2.31391 0.214455 2.31508 0.215633C2.31625 0.216812 2.31718 0.218211 2.31781 0.21975C2.31844 0.221289 2.31877 0.222937 2.31876 0.224601V0.27387C2.31876 0.277234 2.32009 0.280461 2.32247 0.282841C2.32485 0.28522 2.32808 0.286556 2.33144 0.286556H2.41001C2.41337 0.286556 2.41659 0.287885 2.41896 0.290252C2.42134 0.292619 2.42268 0.295831 2.4227 0.299186V0.374227C2.4227 0.37589 2.42237 0.377537 2.42173 0.379073C2.42109 0.380609 2.42016 0.382004 2.41898 0.383178C2.4178 0.384352 2.4164 0.38528 2.41486 0.385912C2.41332 0.386543 2.41168 0.386865 2.41001 0.386857H2.33144Z" fill="#F4F0ED"/>
<path d="M2.89632 0.5573C2.89593 0.561555 2.89397 0.565512 2.89081 0.568387C2.88765 0.571263 2.88352 0.572849 2.87925 0.572832H2.56293C2.56032 0.572811 2.55773 0.573381 2.55537 0.574499C2.553 0.575617 2.55092 0.577255 2.54928 0.579291C2.54764 0.581326 2.54648 0.583705 2.54589 0.586251C2.5453 0.588798 2.54529 0.591445 2.54586 0.593996C2.55918 0.650319 2.59485 0.685023 2.65862 0.685023C2.68157 0.68508 2.70423 0.679909 2.72488 0.669904C2.74553 0.659898 2.76363 0.645321 2.77781 0.627278H2.86599C2.86876 0.627211 2.8715 0.627818 2.87398 0.629045C2.87646 0.630272 2.8786 0.632083 2.88022 0.634322C2.88184 0.636561 2.8829 0.639161 2.88329 0.641898C2.88369 0.644635 2.88342 0.647427 2.88249 0.650034C2.83459 0.786973 2.66061 0.781796 2.66061 0.781796C2.5115 0.781796 2.41211 0.682406 2.41211 0.532381C2.41211 0.378773 2.50883 0.276367 2.65521 0.276367C2.80068 0.276367 2.89825 0.373994 2.89825 0.521288C2.8982 0.532894 2.8974 0.545751 2.89632 0.5573ZM2.7484 0.489712C2.75099 0.489774 2.75356 0.489246 2.75591 0.488167C2.75827 0.487088 2.76035 0.485488 2.76199 0.483487C2.76363 0.481486 2.7648 0.479137 2.7654 0.476618C2.76601 0.474099 2.76603 0.471475 2.76547 0.468947C2.75204 0.407731 2.7146 0.373141 2.6551 0.373141C2.59559 0.373141 2.55992 0.407731 2.54598 0.468549C2.5454 0.471099 2.54541 0.473746 2.546 0.476293C2.5466 0.478839 2.54776 0.481219 2.5494 0.483254C2.55104 0.485289 2.55312 0.486927 2.55548 0.488045C2.55784 0.489164 2.56043 0.489733 2.56304 0.489712H2.7484Z" fill="#F4F0ED"/>
<path d="M3.01594 0.529716C3.01594 0.616021 3.06925 0.673823 3.14969 0.676725H3.29192C3.29845 0.67674 3.30471 0.67934 3.30933 0.683956C3.31394 0.688573 3.31654 0.69483 3.31656 0.701358V0.757113C3.31657 0.763621 3.314 0.76987 3.30942 0.774488C3.30483 0.779106 3.2986 0.781717 3.29209 0.781747L3.14986 0.782543C2.99352 0.782543 2.88867 0.681333 2.88867 0.529488C2.88867 0.378554 2.99352 0.277344 3.14986 0.277344H3.29209C3.29863 0.277344 3.30489 0.279939 3.30951 0.284559C3.31413 0.289179 3.31673 0.295445 3.31673 0.301978V0.357675C3.31671 0.364204 3.31411 0.370461 3.3095 0.375077C3.30488 0.379694 3.29862 0.382294 3.29209 0.382309H3.14986C3.06925 0.385609 3.01594 0.443411 3.01594 0.529716Z" fill="#F4F0ED"/>
<path d="M0.0685264 0.35443C0.0651697 0.294181 0.126841 0.231088 0.200686 0.240646C0.214966 0.24241 0.229132 0.246335 0.243071 0.249521C0.286138 0.258852 0.315495 0.239053 0.326987 0.196327C0.339958 0.147912 0.364991 0.108714 0.417047 0.0948888C0.473654 0.0798124 0.516835 0.0995539 0.548979 0.140402C0.587723 0.189273 0.572305 0.269263 0.520533 0.304991C0.506391 0.315156 0.490208 0.322126 0.473105 0.325417C0.456003 0.328708 0.438389 0.328241 0.421484 0.32405C0.40391 0.32033 0.385965 0.31865 0.368006 0.319043C0.336943 0.319043 0.321696 0.339467 0.311797 0.365695C0.305592 0.383532 0.298432 0.401024 0.290348 0.418092C0.266909 0.464346 0.225719 0.478398 0.176564 0.475951C0.146178 0.474016 0.117783 0.460166 0.0975524 0.43741C0.0773219 0.414655 0.0668907 0.384834 0.0685264 0.35443ZM0.11404 0.359095C0.112504 0.400626 0.152783 0.432088 0.184074 0.430893C0.23175 0.429072 0.264633 0.39744 0.260309 0.352666C0.25701 0.31819 0.23266 0.283941 0.185895 0.285534C0.16664 0.285819 0.148283 0.293718 0.134838 0.307504C0.121393 0.32129 0.113956 0.33984 0.114154 0.359095H0.11404ZM0.44811 0.140687C0.406294 0.141938 0.376767 0.171977 0.377848 0.212143C0.378758 0.244913 0.413178 0.280414 0.444184 0.277398C0.501076 0.271709 0.520818 0.256007 0.521045 0.19775C0.521159 0.17266 0.488048 0.136647 0.44811 0.140687Z" fill="#F4F0ED"/>
<path d="M0.658908 0.745281C0.604747 0.717574 0.58108 0.633033 0.626651 0.574605C0.635412 0.563226 0.64605 0.553441 0.655836 0.542973C0.685761 0.510886 0.683428 0.47584 0.652081 0.444379C0.616467 0.408707 0.595189 0.367518 0.609355 0.31603C0.624944 0.260105 0.664028 0.233252 0.715686 0.226425C0.777868 0.218176 0.83971 0.271939 0.844545 0.33452C0.846222 0.351717 0.844084 0.369073 0.838281 0.385348C0.832479 0.401624 0.823157 0.416418 0.810979 0.428676C0.798793 0.441745 0.788212 0.456222 0.779461 0.471801C0.763816 0.498312 0.773772 0.521638 0.791636 0.543371C0.804005 0.557697 0.81559 0.572681 0.82634 0.588259C0.854786 0.631724 0.846081 0.673995 0.819228 0.714445C0.80179 0.739459 0.775277 0.756678 0.745333 0.762437C0.71539 0.768196 0.684381 0.762041 0.658908 0.745281ZM0.686102 0.708699C0.721432 0.731115 0.769335 0.712682 0.784126 0.685373C0.806883 0.643728 0.795505 0.599637 0.754657 0.580635C0.722968 0.566014 0.680697 0.569257 0.65851 0.610105C0.653798 0.618379 0.650774 0.627504 0.649612 0.636954C0.648449 0.646403 0.649172 0.65599 0.651738 0.665158C0.654304 0.674327 0.658662 0.682896 0.664561 0.690369C0.670459 0.697843 0.677781 0.704073 0.686102 0.708699ZM0.665166 0.312901C0.645026 0.349198 0.656234 0.389648 0.691735 0.409049C0.720692 0.424865 0.76905 0.413486 0.782192 0.385552C0.806371 0.334349 0.802389 0.309317 0.751528 0.279449C0.730079 0.266876 0.682234 0.276889 0.665166 0.312901Z" fill="#F4F0ED"/>
<path d="M0.512731 0.916695C0.461983 0.950148 0.375792 0.929667 0.346322 0.861965C0.340633 0.84888 0.337105 0.834885 0.332554 0.821288C0.318729 0.77987 0.286642 0.764908 0.243632 0.776798C0.194875 0.790338 0.14811 0.788916 0.109594 0.751538C0.0677217 0.710974 0.0629427 0.664095 0.0819447 0.616078C0.104701 0.558219 0.182188 0.53074 0.239649 0.556683C0.25556 0.563525 0.26978 0.573768 0.281309 0.586693C0.292838 0.599617 0.301396 0.61491 0.306384 0.631495C0.312056 0.648376 0.319694 0.66453 0.329141 0.679626C0.345013 0.706024 0.370444 0.708698 0.398264 0.703805C0.416933 0.700024 0.435791 0.697251 0.454758 0.695499C0.506871 0.691972 0.540096 0.719963 0.562853 0.762802C0.576546 0.789868 0.57896 0.821256 0.569566 0.850098C0.560173 0.878939 0.539737 0.902885 0.512731 0.916695ZM0.493558 0.875562C0.530481 0.855764 0.537422 0.805415 0.520468 0.779301C0.494639 0.739477 0.450377 0.727643 0.413625 0.754098C0.385179 0.774409 0.368111 0.812583 0.393087 0.851611C0.403339 0.86799 0.419621 0.879682 0.438418 0.884163C0.457214 0.888644 0.477019 0.885555 0.493558 0.875562ZM0.133659 0.701928C0.155961 0.736916 0.197151 0.746816 0.231514 0.725481C0.259562 0.708072 0.272931 0.660738 0.254612 0.635762C0.220932 0.589964 0.197037 0.581317 0.146005 0.610901C0.124329 0.623189 0.110049 0.66967 0.133659 0.701814V0.701928Z" fill="#F4F0ED"/>
</g>
<defs>
<clipPath id="clip0">
<rect width="3.38467" height="1" fill="white"/>
</clipPath>
</defs>
</svg>
