<svg width="1431" height="609" viewBox="0 0 1431 609" fill="none" xmlns="http://www.w3.org/2000/svg">
<path d="M1204.2 442.04C1187.7 435.21 1168.74 443.074 1161.91 459.554C1155.08 476.041 1162.94 495.009 1179.43 501.841C1195.92 508.671 1214.89 500.813 1221.72 484.324C1228.55 467.84 1220.69 448.87 1204.2 442.04ZM1192.21 432.468C1197.13 432.511 1202.11 433.478 1206.92 435.47C1216.67 439.508 1224.25 447.093 1228.29 456.833C1232.32 466.576 1232.32 477.303 1228.28 487.045C1219.96 507.155 1196.81 516.736 1176.71 508.409C1166.97 504.373 1159.38 496.786 1155.34 487.045C1151.31 477.305 1151.31 466.576 1155.34 456.835C1161.68 441.539 1176.59 432.33 1192.21 432.468" fill="#2D3278"/>
<path d="M1357.44 266.764C1362.04 266.804 1365.82 263.092 1365.86 258.491L1366.3 208.552C1366.34 203.95 1362.63 200.171 1358.02 200.132L1316.43 199.768C1322.15 204.174 1326.64 210.015 1329.48 216.865C1333.75 227.184 1333.75 238.548 1329.48 248.862L1323.17 266.466L1357.44 266.764ZM1301.31 192.525L1358.08 193.023C1366.61 193.097 1373.48 200.09 1373.41 208.615L1372.97 258.552C1372.9 267.075 1365.9 273.948 1357.38 273.872L1318.11 273.531C1316.96 273.52 1315.88 272.953 1315.22 272.01C1314.56 271.064 1314.4 269.859 1314.79 268.774L1322.85 246.302C1326.46 237.579 1326.46 228.148 1322.91 219.586C1319.37 211.022 1312.7 204.355 1304.13 200.81C1302.87 200.287 1301.59 199.866 1300.3 199.499C1298.59 199.011 1297.51 197.336 1297.76 195.576C1298.01 193.811 1299.53 192.513 1301.31 192.525" fill="#2D3278"/>
<path d="M1265.87 199.328L1224.54 198.968C1219.93 198.927 1216.15 202.639 1216.12 207.243L1215.68 257.18C1215.64 261.781 1219.35 265.561 1223.96 265.599L1229.19 265.646L1252.3 216.711C1255.2 209.695 1259.91 203.736 1265.87 199.328ZM1224.6 191.857L1281.18 192.352C1282.97 192.368 1284.46 193.697 1284.68 195.465C1284.9 197.234 1283.78 198.891 1282.06 199.344C1271.45 202.139 1262.97 209.518 1258.79 219.59L1234.65 270.738C1234.06 271.992 1232.79 272.787 1231.4 272.775L1223.89 272.71C1215.37 272.637 1208.5 265.64 1208.57 257.119L1209 207.18C1209.08 198.657 1216.08 191.784 1224.6 191.857" fill="#2D3278"/>
<path d="M1152.79 466.176L1077.6 465.521C1069.32 465.447 1062.53 472.123 1062.46 480.398L1061.61 577.823L1256.83 579.526L1257.68 482.103C1257.75 473.828 1251.08 467.035 1242.8 466.961L1230.93 466.858C1231.85 473.706 1230.95 480.607 1228.28 487.046C1224.25 496.787 1216.66 504.376 1206.92 508.41C1197.17 512.441 1186.45 512.439 1176.71 508.41C1159.89 501.441 1150.17 483.827 1152.79 466.176ZM1077.66 458.41L1157.18 459.104C1158.28 459.114 1159.31 459.631 1159.98 460.508C1160.65 461.385 1160.87 462.519 1160.58 463.583C1156.38 479.203 1164.48 495.651 1179.43 501.84C1187.41 505.145 1196.21 505.143 1204.2 501.838C1212.19 498.531 1218.41 492.313 1221.72 484.325C1224.37 477.905 1224.88 470.92 1223.18 464.128C1222.92 463.062 1223.16 461.928 1223.84 461.066C1224.52 460.201 1225.56 459.7 1226.66 459.71L1242.86 459.853C1255.06 459.958 1264.9 469.967 1264.79 482.164L1263.91 583.145C1263.89 585.107 1262.28 586.686 1260.32 586.668L1057.99 584.903C1056.03 584.885 1054.45 583.279 1054.47 581.315L1055.35 480.337C1055.46 468.14 1065.47 458.304 1077.66 458.41" fill="#2D3278"/>
<path d="M1192.03 449.958C1194.77 449.982 1197.55 450.521 1200.23 451.631H1200.23C1205.66 453.879 1209.88 458.102 1212.13 463.526C1214.37 468.954 1214.37 474.927 1212.13 480.355C1207.48 491.548 1194.61 496.897 1183.4 492.248C1172.2 487.608 1166.87 474.726 1171.5 463.528C1175.03 455.011 1183.33 449.882 1192.03 449.958Z" fill="#2D3278"/>
<path d="M1369.81 213.521L1417.59 213.938C1424.5 213.997 1430.07 219.669 1430.01 226.58L1429.88 241.584C1429.82 248.493 1424.15 254.067 1417.24 254.008L1369.46 253.591C1367.5 253.573 1365.92 251.967 1365.94 250.003L1366.22 217.044C1366.24 215.082 1367.85 213.502 1369.81 213.521Z" fill="#2D3278"/>
<path d="M1012.39 210.4L1212.25 212.144C1214.21 212.162 1215.79 213.768 1215.77 215.73L1215.48 248.691C1215.47 250.653 1213.86 252.232 1211.9 252.214L1012.04 250.472C1010.08 250.454 1008.5 248.848 1008.52 246.884L1008.8 213.924C1008.82 211.963 1010.43 210.381 1012.39 210.4Z" fill="#2D3278"/>
<path d="M1351.87 217.051C1353.51 217.065 1354.84 215.744 1354.86 214.112C1354.88 212.478 1353.56 211.139 1351.92 211.125C1350.29 211.108 1348.95 212.427 1348.93 214.059C1348.92 215.693 1350.24 217.035 1351.87 217.051ZM1351.99 204.014C1357.54 204.063 1362.02 208.617 1361.97 214.173C1361.92 219.727 1357.36 224.209 1351.81 224.16C1346.25 224.111 1341.77 219.552 1341.82 213.998C1341.87 208.444 1346.43 203.965 1351.99 204.014" fill="#2D3278"/>
<path d="M1351.7 236.361C1353.34 236.376 1354.68 235.057 1354.69 233.425C1354.71 231.79 1353.39 230.449 1351.75 230.435C1350.12 230.419 1348.78 231.74 1348.76 233.372C1348.75 235.006 1350.07 236.347 1351.7 236.361ZM1351.82 223.324C1357.37 223.373 1361.85 227.932 1361.8 233.488C1361.75 239.04 1357.2 243.519 1351.64 243.47C1346.09 243.423 1341.61 238.865 1341.65 233.311C1341.7 227.755 1346.26 223.275 1351.82 223.324" fill="#2D3278"/>
<path d="M1351.53 255.667C1353.17 255.681 1354.51 254.363 1354.52 252.73C1354.54 251.096 1353.22 249.755 1351.59 249.741C1349.95 249.724 1348.61 251.045 1348.6 252.677C1348.58 254.312 1349.9 255.653 1351.53 255.667ZM1351.65 242.63C1357.2 242.679 1361.68 247.237 1361.63 252.793C1361.58 258.345 1357.03 262.827 1351.47 262.776C1345.92 262.729 1341.44 258.17 1341.49 252.616C1341.53 247.06 1346.09 242.581 1351.65 242.63" fill="#2D3278"/>
<path d="M1040.5 577.64L1282.25 579.75C1284.21 579.769 1285.79 581.374 1285.77 583.336L1285.58 605.475C1285.56 607.437 1283.96 609.014 1281.99 609L1040.25 606.887C1038.28 606.871 1036.7 605.265 1036.72 603.301L1036.91 581.165C1036.93 579.203 1038.54 577.625 1040.5 577.64Z" fill="#2D3278"/>
<path d="M1244.68 525.968L1179.74 525.402L1244.68 525.968Z" fill="#2D3278"/>
<path d="M1179.77 521.848L1244.71 522.413C1246.67 522.432 1248.25 524.038 1248.23 525.999C1248.22 527.963 1246.61 529.541 1244.65 529.522L1179.7 528.957C1177.74 528.938 1176.16 527.332 1176.18 525.371C1176.2 523.409 1177.8 521.829 1179.77 521.848Z" fill="#2D3278"/>
<path d="M1244.58 537.406L1179.63 536.84L1244.58 537.406Z" fill="#2D3278"/>
<path d="M1179.67 533.284L1244.61 533.852C1246.57 533.868 1248.15 535.474 1248.13 537.438C1248.12 539.402 1246.51 540.979 1244.55 540.961L1179.6 540.395C1177.64 540.377 1176.06 538.771 1176.08 536.807C1176.1 534.847 1177.7 533.268 1179.67 533.284Z" fill="#2D3278"/>
<path d="M1120.5 447.749L1078.76 447.408L1120.5 447.749Z" fill="#2D3278"/>
<path d="M1179.57 544.722L1244.51 545.289C1246.47 545.306 1248.05 546.912 1248.03 548.875C1248.02 550.837 1246.41 552.415 1244.45 552.398L1179.5 551.833C1177.54 551.814 1175.96 550.208 1175.98 548.245C1176 546.285 1177.6 544.705 1179.57 544.722Z" fill="#2D3278"/>
<path d="M1120.44 454.642L1078.69 454.301L1120.44 454.642Z" fill="#2D3278"/>
<path d="M1179.46 556.16L1244.41 556.726C1246.37 556.744 1247.95 558.35 1247.93 560.314C1247.91 562.276 1246.31 563.853 1244.35 563.837L1179.4 563.269C1177.44 563.253 1175.86 561.645 1175.88 559.683C1175.9 557.723 1177.5 556.144 1179.46 556.16Z" fill="#2D3278"/>
<path d="M912.196 188.123C928.568 188.264 944.609 195.102 956.173 207.555C957.101 208.552 957.374 209.997 956.878 211.267C956.383 212.539 955.202 213.412 953.843 213.516C951.826 213.671 950.112 214.053 948.602 214.678C945.056 216.15 942.16 218.771 940.231 222.263C939.705 223.214 938.775 223.869 937.709 224.05C936.63 224.227 935.547 223.912 934.743 223.189C925.629 215.01 912.825 212.256 901.331 215.993C887.994 220.336 878.737 232.16 877.744 246.115C877.618 247.933 877.062 249.706 876.05 251.533C875.505 252.518 874.526 253.188 873.406 253.336C872.291 253.473 871.166 253.092 870.386 252.282L854.5 235.836C853.623 234.93 853.293 233.628 853.629 232.413C859.039 212.922 873.748 197.485 892.986 191.123C899.271 189.045 905.762 188.066 912.196 188.123Z" fill="#2D3278"/>
<path d="M955.029 247.747C957.306 247.767 959.588 247.328 961.758 246.43C970.512 242.801 974.682 232.731 971.055 223.974C969.299 219.733 965.993 216.432 961.756 214.675C957.512 212.921 952.843 212.917 948.597 214.679C939.845 218.306 935.673 228.376 939.3 237.131C941.058 241.373 944.362 244.674 948.601 246.432C950.673 247.289 952.851 247.726 955.029 247.747ZM955.389 206.246C958.467 206.272 961.544 206.893 964.475 208.106C970.471 210.589 975.14 215.259 977.625 221.255C982.752 233.629 976.856 247.871 964.479 252.997C958.483 255.474 951.88 255.482 945.882 253C939.886 250.517 935.215 245.846 932.73 239.852C927.603 227.477 933.501 213.236 945.878 208.108C948.941 206.84 952.167 206.219 955.389 206.246" fill="#2D3278"/>
<path d="M601.377 301.017V299.867H600.227H580.429V185.743V184.593H579.279H542.209H541.576L541.237 185.128L464.177 306.876L463.974 307.196L464.001 307.573L465.652 330.679L465.728 331.747H466.799H541.44V370.587V371.737H542.59H579.279H580.429V370.587V331.747H600.227H601.377V330.597V301.017ZM541.151 240.565L541.163 240.546L541.174 240.526L541.44 240.065V299.867H503.795L541.151 240.565ZM618.373 296.065L618.374 296.077C618.629 321.02 624.119 340.352 635.004 353.914C645.927 367.525 661.69 374.276 682.111 374.276C702.788 374.276 718.643 367.396 729.482 353.521C740.28 339.7 745.595 319.858 745.595 294.161L745.595 260.138L745.595 260.126C745.34 235.186 739.851 215.895 728.965 202.416C718.042 188.805 702.278 182.054 681.857 182.054C661.434 182.054 645.629 188.849 634.623 202.542L634.62 202.546C623.729 216.203 618.373 236.094 618.373 262.042L618.373 296.065ZM700.418 224.033L700.422 224.04L700.426 224.047C704.488 230.708 706.606 241.572 706.606 256.837V300.756C706.437 315.163 704.367 325.673 700.534 332.442C696.787 339.06 690.724 342.396 682.111 342.396C673.431 342.396 667.233 338.946 663.31 332.066C659.391 324.959 657.363 313.983 657.363 298.985V254.054C657.617 239.989 659.769 229.88 663.665 223.547C667.579 217.236 673.576 214.061 681.857 214.061C690.381 214.061 696.499 217.395 700.418 224.033Z" fill="#F0FAF9" stroke="#293E3E" stroke-width="2.3"/>
<path d="M912.82 306.471L913.126 305.362L912.017 305.056L892.934 299.788L923.301 189.779L923.607 188.671L922.499 188.365L886.765 178.5L886.155 178.332L885.686 178.758L779.007 275.611L778.727 275.865L778.653 276.236L774.095 298.947L773.885 299.997L774.917 300.282L846.867 320.144L836.531 357.584L836.225 358.692L837.334 358.998L872.701 368.761L873.809 369.067L874.115 367.959L884.45 330.519L903.534 335.787L904.643 336.093L904.949 334.984L912.82 306.471ZM870.851 232.173L870.868 232.157L870.884 232.141L871.263 231.768L855.35 289.413L819.062 279.396L870.851 232.173Z" fill="#F0FAF9" stroke="#293E3E" stroke-width="2.3"/>
<path d="M968.544 242.76C969.019 242.764 969.495 242.864 969.945 243.061C971.19 243.609 972.013 244.817 972.066 246.175C973.065 271.34 958.148 294.703 934.945 304.318C913.714 313.111 889.704 309.241 872.297 294.203C868.795 291.181 867.142 286.654 867.877 282.102C868.603 277.584 871.563 273.841 875.792 272.087C880.39 270.188 885.653 271.079 889.545 274.417C899.392 282.871 912.929 285.042 924.905 280.083C937.005 275.07 945.252 263.348 945.92 250.219C945.973 249.134 946.522 248.133 947.403 247.504C948.291 246.873 949.408 246.684 950.456 246.985C954.299 248.094 958.209 247.901 961.752 246.431H961.759C963.25 245.813 964.665 244.913 966.216 243.6C966.877 243.041 967.71 242.754 968.544 242.76Z" fill="#2D3278"/>
<path d="M955.132 236.924C955.961 236.933 956.803 236.776 957.618 236.44C959.189 235.787 960.414 234.564 961.065 232.99C961.715 231.417 961.715 229.685 961.063 228.116C959.718 224.87 955.995 223.334 952.737 224.667C951.166 225.318 949.94 226.541 949.291 228.116C948.64 229.687 948.64 231.419 949.291 232.988C950.301 235.424 952.651 236.902 955.132 236.924ZM955.273 217.073C960.524 217.12 965.498 220.246 967.633 225.391C969.011 228.719 969.011 232.386 967.633 235.709C966.256 239.037 963.665 241.628 960.341 243.007C953.459 245.859 945.566 242.576 942.721 235.713C941.343 232.388 941.343 228.723 942.721 225.397C944.099 222.068 946.69 219.479 950.014 218.097C951.735 217.385 953.518 217.057 955.273 217.073" fill="#2D3278"/>
<path d="M946.033 230.797C947.417 230.809 948.726 231.633 949.29 232.991C950.041 234.806 949.18 236.884 947.365 237.635L937.373 241.777C935.56 242.528 933.479 241.665 932.728 239.851C931.977 238.038 932.838 235.958 934.654 235.207L944.645 231.068C945.101 230.878 945.571 230.793 946.033 230.797Z" fill="#2D3278"/>
<path d="M998.029 255.046C1003.77 255.095 1008.49 250.465 1008.54 244.723L1008.79 216.078C1008.84 210.335 1004.2 205.626 998.461 205.575L953.844 205.186C954.243 205.567 954.638 205.958 955.025 206.35C965.057 206.312 973.829 212.096 977.625 221.254C981.439 230.459 979.207 240.926 972.109 247.845C972.134 250.147 972.018 252.475 971.771 254.818L998.029 255.046ZM943.706 197.986L998.524 198.464C1008.19 198.55 1015.98 206.479 1015.9 216.142L1015.65 244.784C1015.56 254.447 1007.63 262.24 997.968 262.155L967.656 261.89C966.612 261.882 965.625 261.416 964.957 260.612C964.288 259.81 964.007 258.752 964.186 257.724C964.847 253.928 965.108 250.137 964.961 246.453C964.918 245.36 965.38 244.308 966.217 243.598C971.959 238.736 973.907 230.85 971.055 223.975C968.222 217.137 961.332 212.952 953.838 213.514C952.749 213.591 951.701 213.182 950.96 212.389C948.251 209.468 945.131 206.812 941.687 204.488C940.387 203.613 939.815 201.985 940.279 200.485C940.745 198.989 942.137 197.974 943.706 197.986" fill="#2D3278"/>
<path fill-rule="evenodd" clip-rule="evenodd" d="M1291.25 191.062C1296.46 191.107 1301.75 192.131 1306.85 194.243C1317.17 198.517 1325.21 206.55 1329.48 216.868C1333.75 227.186 1333.75 238.549 1329.48 248.867L1251.76 465.612C1251.11 467.421 1249.14 468.384 1247.31 467.79C1245.63 467.238 1244.19 466.976 1242.8 466.963L1226.6 466.823C1224.98 466.809 1223.58 465.702 1223.18 464.13C1220.66 454.044 1213.74 445.995 1204.2 442.043C1187.71 435.211 1168.74 443.077 1161.91 459.557C1161.36 460.886 1160.94 462.232 1160.58 463.583C1160.16 465.146 1158.74 466.231 1157.12 466.216L1141.86 466.082C1140.81 466.072 1139.81 465.598 1139.14 464.784C1138.48 463.97 1138.21 462.901 1138.4 461.867C1139.09 458.196 1140.17 454.588 1141.6 451.144L1252.29 216.709C1258.95 200.636 1274.72 190.916 1291.25 191.062ZM1221.41 419.826C1229.25 419.895 1236.74 415.273 1239.92 407.594L1280.08 295.56C1283.11 288.248 1279.7 280.016 1272.55 277.053C1265.38 274.083 1257.16 277.498 1254.2 284.652C1254.18 284.701 1254.16 284.752 1254.13 284.799L1254.13 284.811L1203.23 392.589C1199.12 402.525 1203.93 414.137 1214.03 418.32C1216.44 419.319 1218.95 419.803 1221.41 419.826ZM1299.33 253.329C1296.54 254.487 1293.6 255.053 1290.66 255.026C1287.85 255 1285.05 254.434 1282.37 253.329C1276.91 251.066 1272.65 246.806 1270.39 241.34C1268.12 235.875 1268.12 229.855 1270.39 224.387C1272.65 218.922 1276.91 214.665 1282.37 212.402C1287.84 210.132 1293.86 210.141 1299.33 212.402C1310.61 217.076 1315.99 230.057 1311.32 241.342C1309.05 246.808 1304.8 251.066 1299.33 253.329Z" fill="#2D3278"/>
<mask id="path-29-outside-1" maskUnits="userSpaceOnUse" x="476.614" y="410.163" width="410" height="64" fill="black">
<rect fill="white" x="476.614" y="410.163" width="410" height="64"/>
<path d="M488.403 443.749V458.778H479.614V416.122H496.255C499.458 416.122 502.271 416.708 504.692 417.88C507.134 419.052 509.009 420.722 510.317 422.89C511.626 425.038 512.28 427.489 512.28 430.243C512.28 434.423 510.845 437.724 507.974 440.146C505.122 442.548 501.167 443.749 496.108 443.749H488.403ZM488.403 436.63H496.255C498.579 436.63 500.347 436.083 501.558 434.989C502.788 433.896 503.403 432.333 503.403 430.302C503.403 428.212 502.788 426.522 501.558 425.233C500.327 423.944 498.628 423.28 496.46 423.241H488.403V436.63Z"/>
<path d="M535.806 458.778C535.415 458.017 535.132 457.069 534.956 455.937C532.905 458.222 530.239 459.364 526.958 459.364C523.853 459.364 521.274 458.466 519.224 456.669C517.192 454.872 516.177 452.606 516.177 449.872C516.177 446.513 517.417 443.935 519.897 442.138C522.397 440.341 526.001 439.433 530.708 439.413H534.604V437.597C534.604 436.132 534.224 434.96 533.462 434.081C532.72 433.202 531.538 432.763 529.917 432.763C528.491 432.763 527.368 433.104 526.548 433.788C525.747 434.472 525.347 435.409 525.347 436.601H516.88C516.88 434.765 517.446 433.065 518.579 431.503C519.712 429.94 521.313 428.72 523.384 427.841C525.454 426.942 527.778 426.493 530.356 426.493C534.263 426.493 537.358 427.479 539.644 429.452C541.948 431.405 543.101 434.159 543.101 437.714V451.454C543.12 454.462 543.54 456.737 544.36 458.28V458.778H535.806ZM528.804 452.89C530.054 452.89 531.206 452.616 532.261 452.069C533.315 451.503 534.097 450.751 534.604 449.813V444.364H531.44C527.202 444.364 524.946 445.829 524.673 448.759L524.644 449.257C524.644 450.312 525.015 451.181 525.757 451.864C526.499 452.548 527.515 452.89 528.804 452.89Z"/>
<path d="M548.374 442.694C548.374 437.831 549.526 433.915 551.831 430.946C554.155 427.978 557.28 426.493 561.206 426.493C564.683 426.493 567.388 427.685 569.321 430.067L569.673 427.079H577.349V457.724C577.349 460.497 576.714 462.909 575.444 464.96C574.194 467.011 572.427 468.573 570.142 469.647C567.856 470.722 565.181 471.259 562.114 471.259C559.79 471.259 557.524 470.79 555.317 469.853C553.11 468.935 551.44 467.743 550.308 466.278L554.058 461.122C556.167 463.485 558.726 464.667 561.733 464.667C563.979 464.667 565.728 464.062 566.978 462.851C568.228 461.659 568.853 459.96 568.853 457.753V456.054C566.899 458.261 564.331 459.364 561.147 459.364C557.339 459.364 554.253 457.88 551.89 454.911C549.546 451.923 548.374 447.968 548.374 443.046V442.694ZM556.841 443.31C556.841 446.181 557.417 448.437 558.569 450.077C559.722 451.698 561.304 452.509 563.315 452.509C565.894 452.509 567.739 451.542 568.853 449.608V436.278C567.72 434.345 565.894 433.378 563.374 433.378C561.343 433.378 559.741 434.208 558.569 435.868C557.417 437.528 556.841 440.009 556.841 443.31Z"/>
<path d="M598.472 459.364C593.823 459.364 590.034 457.938 587.104 455.087C584.194 452.235 582.739 448.437 582.739 443.69V442.87C582.739 439.687 583.354 436.845 584.585 434.345C585.815 431.825 587.554 429.892 589.8 428.544C592.065 427.177 594.644 426.493 597.534 426.493C601.87 426.493 605.278 427.86 607.759 430.595C610.259 433.329 611.509 437.206 611.509 442.226V445.683H591.323C591.597 447.753 592.417 449.413 593.784 450.663C595.171 451.913 596.919 452.538 599.028 452.538C602.29 452.538 604.839 451.356 606.675 448.993L610.835 453.651C609.565 455.448 607.847 456.854 605.679 457.87C603.511 458.866 601.108 459.364 598.472 459.364ZM597.505 433.349C595.825 433.349 594.458 433.915 593.403 435.048C592.368 436.181 591.704 437.802 591.411 439.911H603.188V439.237C603.149 437.362 602.642 435.917 601.665 434.901C600.688 433.866 599.302 433.349 597.505 433.349Z"/>
<path d="M639.077 427.079L639.341 430.741C641.606 427.909 644.644 426.493 648.452 426.493C651.812 426.493 654.312 427.479 655.952 429.452C657.593 431.425 658.433 434.374 658.472 438.3V458.778H650.005V438.505C650.005 436.708 649.614 435.409 648.833 434.608C648.052 433.788 646.753 433.378 644.937 433.378C642.554 433.378 640.767 434.394 639.575 436.425V458.778H631.108V427.079H639.077Z"/>
<path d="M663.599 442.636C663.599 439.491 664.204 436.688 665.415 434.228C666.626 431.767 668.364 429.862 670.63 428.515C672.915 427.167 675.562 426.493 678.569 426.493C682.847 426.493 686.333 427.802 689.028 430.419C691.743 433.036 693.257 436.591 693.569 441.083L693.628 443.251C693.628 448.114 692.271 452.021 689.556 454.97C686.841 457.899 683.198 459.364 678.628 459.364C674.058 459.364 670.405 457.899 667.671 454.97C664.956 452.04 663.599 448.056 663.599 443.017V442.636ZM672.065 443.251C672.065 446.259 672.632 448.563 673.765 450.165C674.897 451.747 676.519 452.538 678.628 452.538C680.679 452.538 682.28 451.757 683.433 450.194C684.585 448.612 685.161 446.093 685.161 442.636C685.161 439.687 684.585 437.401 683.433 435.78C682.28 434.159 680.659 433.349 678.569 433.349C676.499 433.349 674.897 434.159 673.765 435.78C672.632 437.382 672.065 439.872 672.065 443.251Z"/>
<path d="M708.979 419.286V427.079H714.399V433.29H708.979V449.11C708.979 450.282 709.204 451.122 709.653 451.63C710.103 452.138 710.962 452.392 712.231 452.392C713.169 452.392 713.999 452.323 714.722 452.187V458.603C713.062 459.11 711.353 459.364 709.595 459.364C703.657 459.364 700.63 456.366 700.513 450.37V433.29H695.884V427.079H700.513V419.286H708.979Z"/>
<path d="M736.372 458.778V433.29H731.655V427.079H736.372V424.384C736.372 420.829 737.388 418.075 739.419 416.122C741.47 414.149 744.331 413.163 748.003 413.163C749.175 413.163 750.61 413.358 752.31 413.749L752.222 420.312C751.519 420.136 750.659 420.048 749.644 420.048C746.46 420.048 744.868 421.542 744.868 424.53V427.079H751.167V433.29H744.868V458.778H736.372Z"/>
<path d="M754.243 442.636C754.243 439.491 754.849 436.688 756.06 434.228C757.271 431.767 759.009 429.862 761.274 428.515C763.56 427.167 766.206 426.493 769.214 426.493C773.491 426.493 776.978 427.802 779.673 430.419C782.388 433.036 783.901 436.591 784.214 441.083L784.272 443.251C784.272 448.114 782.915 452.021 780.2 454.97C777.485 457.899 773.843 459.364 769.272 459.364C764.702 459.364 761.05 457.899 758.315 454.97C755.601 452.04 754.243 448.056 754.243 443.017V442.636ZM762.71 443.251C762.71 446.259 763.276 448.563 764.409 450.165C765.542 451.747 767.163 452.538 769.272 452.538C771.323 452.538 772.925 451.757 774.077 450.194C775.229 448.612 775.806 446.093 775.806 442.636C775.806 439.687 775.229 437.401 774.077 435.78C772.925 434.159 771.304 433.349 769.214 433.349C767.144 433.349 765.542 434.159 764.409 435.78C763.276 437.382 762.71 439.872 762.71 443.251Z"/>
<path d="M808.472 455.556C806.382 458.095 803.491 459.364 799.8 459.364C796.401 459.364 793.804 458.388 792.007 456.435C790.229 454.481 789.321 451.62 789.282 447.851V427.079H797.749V447.558C797.749 450.858 799.253 452.509 802.261 452.509C805.132 452.509 807.104 451.513 808.179 449.521V427.079H816.675V458.778H808.706L808.472 455.556Z"/>
<path d="M830.854 427.079L831.118 430.741C833.384 427.909 836.421 426.493 840.229 426.493C843.589 426.493 846.089 427.479 847.729 429.452C849.37 431.425 850.21 434.374 850.249 438.3V458.778H841.782V438.505C841.782 436.708 841.392 435.409 840.61 434.608C839.829 433.788 838.53 433.378 836.714 433.378C834.331 433.378 832.544 434.394 831.353 436.425V458.778H822.886V427.079H830.854Z"/>
<path d="M855.376 442.694C855.376 437.753 856.479 433.817 858.687 430.888C860.913 427.958 863.95 426.493 867.798 426.493C870.884 426.493 873.433 427.646 875.444 429.95V413.778H883.94V458.778H876.294L875.884 455.409C873.774 458.046 871.06 459.364 867.739 459.364C864.009 459.364 861.011 457.899 858.745 454.97C856.499 452.021 855.376 447.929 855.376 442.694ZM863.843 443.31C863.843 446.278 864.36 448.554 865.396 450.136C866.431 451.718 867.935 452.509 869.907 452.509C872.524 452.509 874.37 451.405 875.444 449.198V436.688C874.39 434.481 872.563 433.378 869.966 433.378C865.884 433.378 863.843 436.688 863.843 443.31Z"/>
</mask>
<path d="M488.403 443.749V458.778H479.614V416.122H496.255C499.458 416.122 502.271 416.708 504.692 417.88C507.134 419.052 509.009 420.722 510.317 422.89C511.626 425.038 512.28 427.489 512.28 430.243C512.28 434.423 510.845 437.724 507.974 440.146C505.122 442.548 501.167 443.749 496.108 443.749H488.403ZM488.403 436.63H496.255C498.579 436.63 500.347 436.083 501.558 434.989C502.788 433.896 503.403 432.333 503.403 430.302C503.403 428.212 502.788 426.522 501.558 425.233C500.327 423.944 498.628 423.28 496.46 423.241H488.403V436.63Z" fill="#F0FAF9"/>
<path d="M535.806 458.778C535.415 458.017 535.132 457.069 534.956 455.937C532.905 458.222 530.239 459.364 526.958 459.364C523.853 459.364 521.274 458.466 519.224 456.669C517.192 454.872 516.177 452.606 516.177 449.872C516.177 446.513 517.417 443.935 519.897 442.138C522.397 440.341 526.001 439.433 530.708 439.413H534.604V437.597C534.604 436.132 534.224 434.96 533.462 434.081C532.72 433.202 531.538 432.763 529.917 432.763C528.491 432.763 527.368 433.104 526.548 433.788C525.747 434.472 525.347 435.409 525.347 436.601H516.88C516.88 434.765 517.446 433.065 518.579 431.503C519.712 429.94 521.313 428.72 523.384 427.841C525.454 426.942 527.778 426.493 530.356 426.493C534.263 426.493 537.358 427.479 539.644 429.452C541.948 431.405 543.101 434.159 543.101 437.714V451.454C543.12 454.462 543.54 456.737 544.36 458.28V458.778H535.806ZM528.804 452.89C530.054 452.89 531.206 452.616 532.261 452.069C533.315 451.503 534.097 450.751 534.604 449.813V444.364H531.44C527.202 444.364 524.946 445.829 524.673 448.759L524.644 449.257C524.644 450.312 525.015 451.181 525.757 451.864C526.499 452.548 527.515 452.89 528.804 452.89Z" fill="#F0FAF9"/>
<path d="M548.374 442.694C548.374 437.831 549.526 433.915 551.831 430.946C554.155 427.978 557.28 426.493 561.206 426.493C564.683 426.493 567.388 427.685 569.321 430.067L569.673 427.079H577.349V457.724C577.349 460.497 576.714 462.909 575.444 464.96C574.194 467.011 572.427 468.573 570.142 469.647C567.856 470.722 565.181 471.259 562.114 471.259C559.79 471.259 557.524 470.79 555.317 469.853C553.11 468.935 551.44 467.743 550.308 466.278L554.058 461.122C556.167 463.485 558.726 464.667 561.733 464.667C563.979 464.667 565.728 464.062 566.978 462.851C568.228 461.659 568.853 459.96 568.853 457.753V456.054C566.899 458.261 564.331 459.364 561.147 459.364C557.339 459.364 554.253 457.88 551.89 454.911C549.546 451.923 548.374 447.968 548.374 443.046V442.694ZM556.841 443.31C556.841 446.181 557.417 448.437 558.569 450.077C559.722 451.698 561.304 452.509 563.315 452.509C565.894 452.509 567.739 451.542 568.853 449.608V436.278C567.72 434.345 565.894 433.378 563.374 433.378C561.343 433.378 559.741 434.208 558.569 435.868C557.417 437.528 556.841 440.009 556.841 443.31Z" fill="#F0FAF9"/>
<path d="M598.472 459.364C593.823 459.364 590.034 457.938 587.104 455.087C584.194 452.235 582.739 448.437 582.739 443.69V442.87C582.739 439.687 583.354 436.845 584.585 434.345C585.815 431.825 587.554 429.892 589.8 428.544C592.065 427.177 594.644 426.493 597.534 426.493C601.87 426.493 605.278 427.86 607.759 430.595C610.259 433.329 611.509 437.206 611.509 442.226V445.683H591.323C591.597 447.753 592.417 449.413 593.784 450.663C595.171 451.913 596.919 452.538 599.028 452.538C602.29 452.538 604.839 451.356 606.675 448.993L610.835 453.651C609.565 455.448 607.847 456.854 605.679 457.87C603.511 458.866 601.108 459.364 598.472 459.364ZM597.505 433.349C595.825 433.349 594.458 433.915 593.403 435.048C592.368 436.181 591.704 437.802 591.411 439.911H603.188V439.237C603.149 437.362 602.642 435.917 601.665 434.901C600.688 433.866 599.302 433.349 597.505 433.349Z" fill="#F0FAF9"/>
<path d="M639.077 427.079L639.341 430.741C641.606 427.909 644.644 426.493 648.452 426.493C651.812 426.493 654.312 427.479 655.952 429.452C657.593 431.425 658.433 434.374 658.472 438.3V458.778H650.005V438.505C650.005 436.708 649.614 435.409 648.833 434.608C648.052 433.788 646.753 433.378 644.937 433.378C642.554 433.378 640.767 434.394 639.575 436.425V458.778H631.108V427.079H639.077Z" fill="#F0FAF9"/>
<path d="M663.599 442.636C663.599 439.491 664.204 436.688 665.415 434.228C666.626 431.767 668.364 429.862 670.63 428.515C672.915 427.167 675.562 426.493 678.569 426.493C682.847 426.493 686.333 427.802 689.028 430.419C691.743 433.036 693.257 436.591 693.569 441.083L693.628 443.251C693.628 448.114 692.271 452.021 689.556 454.97C686.841 457.899 683.198 459.364 678.628 459.364C674.058 459.364 670.405 457.899 667.671 454.97C664.956 452.04 663.599 448.056 663.599 443.017V442.636ZM672.065 443.251C672.065 446.259 672.632 448.563 673.765 450.165C674.897 451.747 676.519 452.538 678.628 452.538C680.679 452.538 682.28 451.757 683.433 450.194C684.585 448.612 685.161 446.093 685.161 442.636C685.161 439.687 684.585 437.401 683.433 435.78C682.28 434.159 680.659 433.349 678.569 433.349C676.499 433.349 674.897 434.159 673.765 435.78C672.632 437.382 672.065 439.872 672.065 443.251Z" fill="#F0FAF9"/>
<path d="M708.979 419.286V427.079H714.399V433.29H708.979V449.11C708.979 450.282 709.204 451.122 709.653 451.63C710.103 452.138 710.962 452.392 712.231 452.392C713.169 452.392 713.999 452.323 714.722 452.187V458.603C713.062 459.11 711.353 459.364 709.595 459.364C703.657 459.364 700.63 456.366 700.513 450.37V433.29H695.884V427.079H700.513V419.286H708.979Z" fill="#F0FAF9"/>
<path d="M736.372 458.778V433.29H731.655V427.079H736.372V424.384C736.372 420.829 737.388 418.075 739.419 416.122C741.47 414.149 744.331 413.163 748.003 413.163C749.175 413.163 750.61 413.358 752.31 413.749L752.222 420.312C751.519 420.136 750.659 420.048 749.644 420.048C746.46 420.048 744.868 421.542 744.868 424.53V427.079H751.167V433.29H744.868V458.778H736.372Z" fill="#F0FAF9"/>
<path d="M754.243 442.636C754.243 439.491 754.849 436.688 756.06 434.228C757.271 431.767 759.009 429.862 761.274 428.515C763.56 427.167 766.206 426.493 769.214 426.493C773.491 426.493 776.978 427.802 779.673 430.419C782.388 433.036 783.901 436.591 784.214 441.083L784.272 443.251C784.272 448.114 782.915 452.021 780.2 454.97C777.485 457.899 773.843 459.364 769.272 459.364C764.702 459.364 761.05 457.899 758.315 454.97C755.601 452.04 754.243 448.056 754.243 443.017V442.636ZM762.71 443.251C762.71 446.259 763.276 448.563 764.409 450.165C765.542 451.747 767.163 452.538 769.272 452.538C771.323 452.538 772.925 451.757 774.077 450.194C775.229 448.612 775.806 446.093 775.806 442.636C775.806 439.687 775.229 437.401 774.077 435.78C772.925 434.159 771.304 433.349 769.214 433.349C767.144 433.349 765.542 434.159 764.409 435.78C763.276 437.382 762.71 439.872 762.71 443.251Z" fill="#F0FAF9"/>
<path d="M808.472 455.556C806.382 458.095 803.491 459.364 799.8 459.364C796.401 459.364 793.804 458.388 792.007 456.435C790.229 454.481 789.321 451.62 789.282 447.851V427.079H797.749V447.558C797.749 450.858 799.253 452.509 802.261 452.509C805.132 452.509 807.104 451.513 808.179 449.521V427.079H816.675V458.778H808.706L808.472 455.556Z" fill="#F0FAF9"/>
<path d="M830.854 427.079L831.118 430.741C833.384 427.909 836.421 426.493 840.229 426.493C843.589 426.493 846.089 427.479 847.729 429.452C849.37 431.425 850.21 434.374 850.249 438.3V458.778H841.782V438.505C841.782 436.708 841.392 435.409 840.61 434.608C839.829 433.788 838.53 433.378 836.714 433.378C834.331 433.378 832.544 434.394 831.353 436.425V458.778H822.886V427.079H830.854Z" fill="#F0FAF9"/>
<path d="M855.376 442.694C855.376 437.753 856.479 433.817 858.687 430.888C860.913 427.958 863.95 426.493 867.798 426.493C870.884 426.493 873.433 427.646 875.444 429.95V413.778H883.94V458.778H876.294L875.884 455.409C873.774 458.046 871.06 459.364 867.739 459.364C864.009 459.364 861.011 457.899 858.745 454.97C856.499 452.021 855.376 447.929 855.376 442.694ZM863.843 443.31C863.843 446.278 864.36 448.554 865.396 450.136C866.431 451.718 867.935 452.509 869.907 452.509C872.524 452.509 874.37 451.405 875.444 449.198V436.688C874.39 434.481 872.563 433.378 869.966 433.378C865.884 433.378 863.843 436.688 863.843 443.31Z" fill="#F0FAF9"/>
<path d="M488.403 443.749V458.778H479.614V416.122H496.255C499.458 416.122 502.271 416.708 504.692 417.88C507.134 419.052 509.009 420.722 510.317 422.89C511.626 425.038 512.28 427.489 512.28 430.243C512.28 434.423 510.845 437.724 507.974 440.146C505.122 442.548 501.167 443.749 496.108 443.749H488.403ZM488.403 436.63H496.255C498.579 436.63 500.347 436.083 501.558 434.989C502.788 433.896 503.403 432.333 503.403 430.302C503.403 428.212 502.788 426.522 501.558 425.233C500.327 423.944 498.628 423.28 496.46 423.241H488.403V436.63Z" stroke="#293E3E" stroke-width="4.6" mask="url(#path-29-outside-1)"/>
<path d="M535.806 458.778C535.415 458.017 535.132 457.069 534.956 455.937C532.905 458.222 530.239 459.364 526.958 459.364C523.853 459.364 521.274 458.466 519.224 456.669C517.192 454.872 516.177 452.606 516.177 449.872C516.177 446.513 517.417 443.935 519.897 442.138C522.397 440.341 526.001 439.433 530.708 439.413H534.604V437.597C534.604 436.132 534.224 434.96 533.462 434.081C532.72 433.202 531.538 432.763 529.917 432.763C528.491 432.763 527.368 433.104 526.548 433.788C525.747 434.472 525.347 435.409 525.347 436.601H516.88C516.88 434.765 517.446 433.065 518.579 431.503C519.712 429.94 521.313 428.72 523.384 427.841C525.454 426.942 527.778 426.493 530.356 426.493C534.263 426.493 537.358 427.479 539.644 429.452C541.948 431.405 543.101 434.159 543.101 437.714V451.454C543.12 454.462 543.54 456.737 544.36 458.28V458.778H535.806ZM528.804 452.89C530.054 452.89 531.206 452.616 532.261 452.069C533.315 451.503 534.097 450.751 534.604 449.813V444.364H531.44C527.202 444.364 524.946 445.829 524.673 448.759L524.644 449.257C524.644 450.312 525.015 451.181 525.757 451.864C526.499 452.548 527.515 452.89 528.804 452.89Z" stroke="#293E3E" stroke-width="4.6" mask="url(#path-29-outside-1)"/>
<path d="M548.374 442.694C548.374 437.831 549.526 433.915 551.831 430.946C554.155 427.978 557.28 426.493 561.206 426.493C564.683 426.493 567.388 427.685 569.321 430.067L569.673 427.079H577.349V457.724C577.349 460.497 576.714 462.909 575.444 464.96C574.194 467.011 572.427 468.573 570.142 469.647C567.856 470.722 565.181 471.259 562.114 471.259C559.79 471.259 557.524 470.79 555.317 469.853C553.11 468.935 551.44 467.743 550.308 466.278L554.058 461.122C556.167 463.485 558.726 464.667 561.733 464.667C563.979 464.667 565.728 464.062 566.978 462.851C568.228 461.659 568.853 459.96 568.853 457.753V456.054C566.899 458.261 564.331 459.364 561.147 459.364C557.339 459.364 554.253 457.88 551.89 454.911C549.546 451.923 548.374 447.968 548.374 443.046V442.694ZM556.841 443.31C556.841 446.181 557.417 448.437 558.569 450.077C559.722 451.698 561.304 452.509 563.315 452.509C565.894 452.509 567.739 451.542 568.853 449.608V436.278C567.72 434.345 565.894 433.378 563.374 433.378C561.343 433.378 559.741 434.208 558.569 435.868C557.417 437.528 556.841 440.009 556.841 443.31Z" stroke="#293E3E" stroke-width="4.6" mask="url(#path-29-outside-1)"/>
<path d="M598.472 459.364C593.823 459.364 590.034 457.938 587.104 455.087C584.194 452.235 582.739 448.437 582.739 443.69V442.87C582.739 439.687 583.354 436.845 584.585 434.345C585.815 431.825 587.554 429.892 589.8 428.544C592.065 427.177 594.644 426.493 597.534 426.493C601.87 426.493 605.278 427.86 607.759 430.595C610.259 433.329 611.509 437.206 611.509 442.226V445.683H591.323C591.597 447.753 592.417 449.413 593.784 450.663C595.171 451.913 596.919 452.538 599.028 452.538C602.29 452.538 604.839 451.356 606.675 448.993L610.835 453.651C609.565 455.448 607.847 456.854 605.679 457.87C603.511 458.866 601.108 459.364 598.472 459.364ZM597.505 433.349C595.825 433.349 594.458 433.915 593.403 435.048C592.368 436.181 591.704 437.802 591.411 439.911H603.188V439.237C603.149 437.362 602.642 435.917 601.665 434.901C600.688 433.866 599.302 433.349 597.505 433.349Z" stroke="#293E3E" stroke-width="4.6" mask="url(#path-29-outside-1)"/>
<path d="M639.077 427.079L639.341 430.741C641.606 427.909 644.644 426.493 648.452 426.493C651.812 426.493 654.312 427.479 655.952 429.452C657.593 431.425 658.433 434.374 658.472 438.3V458.778H650.005V438.505C650.005 436.708 649.614 435.409 648.833 434.608C648.052 433.788 646.753 433.378 644.937 433.378C642.554 433.378 640.767 434.394 639.575 436.425V458.778H631.108V427.079H639.077Z" stroke="#293E3E" stroke-width="4.6" mask="url(#path-29-outside-1)"/>
<path d="M663.599 442.636C663.599 439.491 664.204 436.688 665.415 434.228C666.626 431.767 668.364 429.862 670.63 428.515C672.915 427.167 675.562 426.493 678.569 426.493C682.847 426.493 686.333 427.802 689.028 430.419C691.743 433.036 693.257 436.591 693.569 441.083L693.628 443.251C693.628 448.114 692.271 452.021 689.556 454.97C686.841 457.899 683.198 459.364 678.628 459.364C674.058 459.364 670.405 457.899 667.671 454.97C664.956 452.04 663.599 448.056 663.599 443.017V442.636ZM672.065 443.251C672.065 446.259 672.632 448.563 673.765 450.165C674.897 451.747 676.519 452.538 678.628 452.538C680.679 452.538 682.28 451.757 683.433 450.194C684.585 448.612 685.161 446.093 685.161 442.636C685.161 439.687 684.585 437.401 683.433 435.78C682.28 434.159 680.659 433.349 678.569 433.349C676.499 433.349 674.897 434.159 673.765 435.78C672.632 437.382 672.065 439.872 672.065 443.251Z" stroke="#293E3E" stroke-width="4.6" mask="url(#path-29-outside-1)"/>
<path d="M708.979 419.286V427.079H714.399V433.29H708.979V449.11C708.979 450.282 709.204 451.122 709.653 451.63C710.103 452.138 710.962 452.392 712.231 452.392C713.169 452.392 713.999 452.323 714.722 452.187V458.603C713.062 459.11 711.353 459.364 709.595 459.364C703.657 459.364 700.63 456.366 700.513 450.37V433.29H695.884V427.079H700.513V419.286H708.979Z" stroke="#293E3E" stroke-width="4.6" mask="url(#path-29-outside-1)"/>
<path d="M736.372 458.778V433.29H731.655V427.079H736.372V424.384C736.372 420.829 737.388 418.075 739.419 416.122C741.47 414.149 744.331 413.163 748.003 413.163C749.175 413.163 750.61 413.358 752.31 413.749L752.222 420.312C751.519 420.136 750.659 420.048 749.644 420.048C746.46 420.048 744.868 421.542 744.868 424.53V427.079H751.167V433.29H744.868V458.778H736.372Z" stroke="#293E3E" stroke-width="4.6" mask="url(#path-29-outside-1)"/>
<path d="M754.243 442.636C754.243 439.491 754.849 436.688 756.06 434.228C757.271 431.767 759.009 429.862 761.274 428.515C763.56 427.167 766.206 426.493 769.214 426.493C773.491 426.493 776.978 427.802 779.673 430.419C782.388 433.036 783.901 436.591 784.214 441.083L784.272 443.251C784.272 448.114 782.915 452.021 780.2 454.97C777.485 457.899 773.843 459.364 769.272 459.364C764.702 459.364 761.05 457.899 758.315 454.97C755.601 452.04 754.243 448.056 754.243 443.017V442.636ZM762.71 443.251C762.71 446.259 763.276 448.563 764.409 450.165C765.542 451.747 767.163 452.538 769.272 452.538C771.323 452.538 772.925 451.757 774.077 450.194C775.229 448.612 775.806 446.093 775.806 442.636C775.806 439.687 775.229 437.401 774.077 435.78C772.925 434.159 771.304 433.349 769.214 433.349C767.144 433.349 765.542 434.159 764.409 435.78C763.276 437.382 762.71 439.872 762.71 443.251Z" stroke="#293E3E" stroke-width="4.6" mask="url(#path-29-outside-1)"/>
<path d="M808.472 455.556C806.382 458.095 803.491 459.364 799.8 459.364C796.401 459.364 793.804 458.388 792.007 456.435C790.229 454.481 789.321 451.62 789.282 447.851V427.079H797.749V447.558C797.749 450.858 799.253 452.509 802.261 452.509C805.132 452.509 807.104 451.513 808.179 449.521V427.079H816.675V458.778H808.706L808.472 455.556Z" stroke="#293E3E" stroke-width="4.6" mask="url(#path-29-outside-1)"/>
<path d="M830.854 427.079L831.118 430.741C833.384 427.909 836.421 426.493 840.229 426.493C843.589 426.493 846.089 427.479 847.729 429.452C849.37 431.425 850.21 434.374 850.249 438.3V458.778H841.782V438.505C841.782 436.708 841.392 435.409 840.61 434.608C839.829 433.788 838.53 433.378 836.714 433.378C834.331 433.378 832.544 434.394 831.353 436.425V458.778H822.886V427.079H830.854Z" stroke="#293E3E" stroke-width="4.6" mask="url(#path-29-outside-1)"/>
<path d="M855.376 442.694C855.376 437.753 856.479 433.817 858.687 430.888C860.913 427.958 863.95 426.493 867.798 426.493C870.884 426.493 873.433 427.646 875.444 429.95V413.778H883.94V458.778H876.294L875.884 455.409C873.774 458.046 871.06 459.364 867.739 459.364C864.009 459.364 861.011 457.899 858.745 454.97C856.499 452.021 855.376 447.929 855.376 442.694ZM863.843 443.31C863.843 446.278 864.36 448.554 865.396 450.136C866.431 451.718 867.935 452.509 869.907 452.509C872.524 452.509 874.37 451.405 875.444 449.198V436.688C874.39 434.481 872.563 433.378 869.966 433.378C865.884 433.378 863.843 436.688 863.843 443.31Z" stroke="#293E3E" stroke-width="4.6" mask="url(#path-29-outside-1)"/>
<path d="M457.924 390.939H457.174V391.689V399.378V400.128H457.924H905.688H906.438V399.378V391.689V390.939H905.688H457.924Z" fill="#F0FAF9" stroke="#293E3E" stroke-width="1.5"/>
<path d="M347.727 305.823L360.316 309.874C361.369 305.365 358.793 300.71 354.307 299.267L350.255 297.962L347.727 305.823ZM360.829 314.735C360.424 314.735 360.017 314.671 359.621 314.545L345.968 310.15C344.872 309.801 343.98 309.043 343.453 308.018C343.036 307.205 342.889 306.303 343.023 305.419C343.058 305.188 343.112 304.958 343.185 304.731L345.927 296.203C346 295.976 346.091 295.758 346.198 295.549C346.607 294.751 347.252 294.103 348.065 293.686C349.091 293.162 350.257 293.074 351.352 293.422L355.733 294.833H355.736C362.901 297.137 366.857 304.846 364.552 312.015C364.231 313.013 363.54 313.826 362.608 314.302C362.047 314.59 361.441 314.735 360.829 314.735Z" fill="#2D3278"/>
<path d="M133.081 263.657C130.762 263.657 128.485 263.007 126.469 261.749C123.631 259.978 121.655 257.206 120.902 253.946C119.347 247.217 123.558 240.479 130.287 238.923C137.022 237.385 143.758 241.582 145.309 248.311C146.062 251.573 145.499 254.929 143.726 257.767C141.954 260.603 139.182 262.581 135.925 263.333H135.923C134.979 263.55 134.026 263.657 133.081 263.657ZM133.105 233.943C131.829 233.943 130.535 234.086 129.239 234.386C120.007 236.518 114.231 245.765 116.362 254.995C117.394 259.465 120.109 263.269 123.999 265.701C127.89 268.135 132.497 268.909 136.971 267.869C141.443 266.838 145.245 264.127 147.677 260.233C150.109 256.342 150.882 251.735 149.849 247.263C148.014 239.326 140.923 233.943 133.105 233.943Z" fill="#2D3278"/>
<path d="M87.1785 71.8512C76.5118 71.8512 67.8331 63.1712 67.8331 52.5059C67.8331 41.8405 76.5118 33.1645 87.1785 33.1645C97.8438 33.1645 106.522 41.8405 106.522 52.5059C106.522 63.1712 97.8438 71.8512 87.1785 71.8512ZM87.1785 28.5059C73.9425 28.5059 63.1758 39.2712 63.1758 52.5059C63.1758 65.7405 73.9425 76.5085 87.1785 76.5085C100.413 76.5085 111.18 65.7405 111.18 52.5059C111.18 39.2712 100.413 28.5059 87.1785 28.5059Z" fill="#2D3278"/>
<path d="M378.69 234.211L382.366 236.352H382.368C384.441 237.568 386.866 237.896 389.192 237.284C391.274 236.735 393.053 235.488 394.273 233.737L382.848 227.079L378.69 234.211ZM386.876 242.241C384.49 242.241 382.137 241.611 380.02 240.38L376.041 238.06C375.048 237.48 374.338 236.549 374.044 235.436C373.811 234.553 373.862 233.641 374.182 232.805C374.265 232.586 374.367 232.373 374.488 232.167L379 224.428C379.119 224.222 379.254 224.028 379.402 223.848C379.971 223.157 380.74 222.663 381.622 222.432C382.734 222.136 383.898 222.296 384.893 222.879L397.288 230.105C398.189 230.627 398.834 231.473 399.1 232.487C399.368 233.499 399.225 234.553 398.696 235.457C396.861 238.608 393.906 240.859 390.377 241.787C389.218 242.093 388.044 242.241 386.876 242.241Z" fill="#2D3278"/>
<path d="M347.727 305.823L360.316 309.874C361.369 305.365 358.793 300.71 354.307 299.267L350.255 297.962L347.727 305.823Z" fill="#2D3278"/>
<path d="M378.69 234.211L382.366 236.352H382.368C384.441 237.568 386.866 237.896 389.192 237.284C391.274 236.735 393.053 235.488 394.273 233.737L382.848 227.079L378.69 234.211Z" fill="#2D3278"/>
<path d="M133.081 263.657C130.762 263.657 128.485 263.007 126.469 261.749C123.631 259.978 121.655 257.206 120.902 253.946C119.347 247.217 123.558 240.479 130.287 238.923C137.022 237.385 143.758 241.582 145.309 248.311C146.062 251.573 145.499 254.929 143.726 257.767C141.954 260.603 139.182 262.581 135.925 263.333H135.923C134.979 263.55 134.026 263.657 133.081 263.657Z" fill="#2D3278"/>
<path d="M87.1785 71.8512C76.5118 71.8512 67.8331 63.1712 67.8331 52.5059C67.8331 41.8405 76.5118 33.1645 87.1785 33.1645C97.8438 33.1645 106.522 41.8405 106.522 52.5059C106.522 63.1712 97.8438 71.8512 87.1785 71.8512Z" fill="#2D3278"/>
<path fill-rule="evenodd" clip-rule="evenodd" d="M330.477 262.485L325.424 261.998C325.453 261.999 325.483 262.001 325.513 262.004C325.543 262.007 325.572 262.01 325.602 262.014L330.477 262.485ZM335.386 239.872L339.96 244.073C341.394 245.389 342.316 247.095 342.669 248.913C342.656 248.866 342.644 248.819 342.634 248.771C342.248 246.952 341.324 245.326 339.96 244.073L335.442 239.925C335.423 239.908 335.404 239.89 335.386 239.872Z" fill="#2D3278"/>
<path fill-rule="evenodd" clip-rule="evenodd" d="M320.675 246.178L320.462 246.656C320.535 246.498 320.606 246.338 320.675 246.178Z" fill="#2D3278"/>
<path d="M135.59 277.295C136.728 277.186 137.872 277.001 139.016 276.736H139.017C153.136 273.476 161.972 259.335 158.713 245.216L155.766 228.938L301.876 220.432C302.465 220.379 303.049 220.351 303.629 220.351C313.075 220.351 321.169 227.561 322.075 237.151C322.158 238.034 322.179 238.915 322.139 239.786L326.331 241.656L324.433 245.911L321.399 244.555L320.675 246.178L320.462 246.656L319.581 248.631L322.615 249.987L320.718 254.239L316.407 252.316C313.414 255.179 309.574 256.943 305.388 257.345L136.552 277.4C136.222 277.432 135.895 277.393 135.59 277.295Z" fill="#2D3278"/>
<path fill-rule="evenodd" clip-rule="evenodd" d="M343.185 304.731C343.112 304.958 343.058 305.188 343.023 305.419L329.141 300.953C328.071 301.57 326.876 301.89 325.656 301.89C325.205 301.89 324.752 301.847 324.3 301.759C322.464 301.402 320.876 300.348 319.832 298.796C318.786 297.247 318.408 295.382 318.765 293.544L322.749 266.217C321.381 265.719 320.208 264.755 319.461 263.473C318.447 261.732 318.332 259.59 319.152 257.75L320.718 254.239L322.615 249.987L324.433 245.911L326.331 241.656L327.971 237.981C328.792 236.14 330.46 234.797 332.435 234.386C333.884 234.082 335.38 234.311 336.662 234.993L354.43 213.648C356.689 210.651 361.089 210.032 364.171 212.361C365.573 213.419 366.464 214.905 366.802 216.502L379.402 223.848C379.254 224.028 379.119 224.222 379 224.428L374.488 232.167C374.367 232.373 374.265 232.586 374.182 232.805L362.813 226.179L347.373 248.816C347.696 251.243 347.363 253.768 346.315 256.118L344.903 259.281C343.857 261.627 342.205 263.559 340.187 264.939L333.672 291.521L346.198 295.549C346.091 295.758 346 295.976 345.927 296.203L343.185 304.731ZM344.106 300.876L332.465 297.128L332.785 296.127L344.43 299.872L344.106 300.876ZM376.138 228.552L365.807 222.529L366.336 221.62L376.668 227.645L376.138 228.552ZM331.693 262.602C335.485 262.95 339.093 260.87 340.649 257.382L342.06 254.22C342.789 252.585 342.991 250.821 342.71 249.142C342.697 249.065 342.683 248.989 342.669 248.913C342.316 247.095 341.394 245.389 339.96 244.073L335.386 239.872L334.809 239.342C334.419 238.985 333.888 238.836 333.381 238.948C332.863 239.054 332.441 239.394 332.225 239.88L329.637 245.68L325.921 254.011L325.915 254.024L323.407 259.648C323.192 260.13 323.221 260.67 323.488 261.129C323.753 261.586 324.209 261.88 324.736 261.932L325.424 261.998L330.477 262.485L331.693 262.602Z" fill="#2D3278"/>
<path fill-rule="evenodd" clip-rule="evenodd" d="M339.96 244.073C341.394 245.389 342.316 247.095 342.669 248.913C342.656 248.866 342.644 248.819 342.634 248.771C342.248 246.952 341.324 245.326 339.96 244.073ZM325.424 261.998C325.453 261.999 325.483 262.001 325.513 262.004C325.543 262.007 325.572 262.01 325.602 262.014L330.477 262.485L325.424 261.998ZM335.386 239.872L339.96 244.073L335.442 239.925C335.423 239.908 335.404 239.89 335.386 239.872Z" fill="#2D3278"/>
<path fill-rule="evenodd" clip-rule="evenodd" d="M135.798 272.807C135.852 272.796 135.908 272.786 135.964 272.779C136.633 272.687 137.303 272.574 137.969 272.422C137.245 272.59 136.52 272.718 135.798 272.807ZM154.153 246.378L151.513 231.801C151.505 231.756 151.498 231.71 151.493 231.664L154.153 246.378ZM133.105 233.943C131.829 233.943 130.535 234.086 129.239 234.386C120.007 236.518 114.231 245.765 116.362 254.995C117.394 259.465 120.109 263.269 123.999 265.701C127.89 268.135 132.497 268.909 136.971 267.869C141.443 266.838 145.245 264.127 147.677 260.233C150.109 256.342 150.882 251.735 149.849 247.263C148.014 239.326 140.923 233.943 133.105 233.943Z" fill="#2D3278"/>
<path fill-rule="evenodd" clip-rule="evenodd" d="M102.809 95.0267H71.5485C69.8752 95.0267 68.2015 94.8655 66.5481 94.5481L112.036 255.991C114.55 266.886 124.936 274.155 135.798 272.807C134.622 273.054 133.814 274.168 133.967 275.38C134.086 276.311 134.754 277.026 135.59 277.295C122.677 278.535 110.494 270.021 107.525 257.145L61.2697 92.9848C55.0051 90.3836 49.9289 85.4792 47.1031 79.3345C33.1451 78.7964 21.9561 67.2724 21.9561 53.1888V44.3047C9.65386 43.1288 0 32.7365 0 20.1302V2.64087C0 1.35554 1.044 0.311523 2.32933 0.311523H207.008C208.295 0.311523 209.337 1.35554 209.337 2.64087V20.1302C209.337 32.5794 199.923 42.8694 187.839 44.2565V53.1888C187.839 67.6142 176.103 79.3542 161.675 79.3542H128.681L155.766 228.938L153.669 229.06C153.004 229.1 152.387 229.421 151.975 229.945C151.59 230.434 151.418 231.053 151.493 231.664L124.728 83.6601C119.761 90.6508 111.614 95.0267 102.809 95.0267ZM71.5485 14.644C59.2898 14.644 49.3165 24.6187 49.3165 36.876L49.3161 42.0862L49.3165 68.136C49.3165 71.069 49.8876 73.8713 50.9243 76.4375C53.2435 82.178 57.8931 86.7372 63.6942 88.9353C66.1374 89.8611 68.7849 90.368 71.5485 90.368H102.809C115.069 90.368 125.041 80.3933 125.041 68.136V42.111V42.0614V36.876C125.041 24.6187 115.069 14.644 102.809 14.644H71.5485ZM185.066 14.4509C188.483 15.4583 190.985 18.6242 190.985 22.3617C190.985 26.1024 188.483 29.2689 185.066 30.2763V14.4509ZM180.408 30.2762C176.991 29.2686 174.489 26.1022 174.489 22.3617C174.489 18.6244 176.991 15.4586 180.408 14.4511V30.2762Z" fill="#2D3278"/>
<path fill-rule="evenodd" clip-rule="evenodd" d="M63.6942 88.9353C66.1374 89.8611 68.7849 90.368 71.5485 90.368C69.0005 90.368 66.4535 89.9135 63.9801 89.0188C63.886 88.9846 63.7905 88.9568 63.6942 88.9353ZM50.9243 76.4375C49.8876 73.8713 49.3165 71.069 49.3165 68.136C49.3165 70.8747 49.8294 73.5795 50.8414 76.1822C50.8741 76.2662 50.9018 76.3514 50.9243 76.4375ZM125.041 42.0614V42.111L125.04 42.0862L125.041 42.0614ZM125.041 68.136C125.041 80.3933 115.069 90.368 102.809 90.368C112.055 90.368 120.425 84.5281 123.639 75.8361C123.657 75.7858 123.678 75.7363 123.7 75.6879C124.59 73.235 125.041 70.6956 125.041 68.136ZM87.1785 28.5059C73.9425 28.5059 63.1758 39.2712 63.1758 52.5059C63.1758 65.7405 73.9425 76.5085 87.1785 76.5085C100.413 76.5085 111.18 65.7405 111.18 52.5059C111.18 39.2712 100.413 28.5059 87.1785 28.5059Z" fill="#2D3278"/>
<path d="M154.702 250.474C154.65 249.122 154.47 247.753 154.153 246.378L151.493 231.664C151.418 231.053 151.59 230.434 151.975 229.945C152.387 229.421 153.004 229.1 153.669 229.06L155.766 228.938L158.713 245.216C161.972 259.335 153.136 273.476 139.017 276.736H139.016C137.872 277.001 136.728 277.186 135.59 277.295C134.754 277.026 134.086 276.311 133.967 275.38C133.814 274.168 134.622 273.054 135.798 272.807C136.52 272.718 137.245 272.59 137.969 272.422C148.228 270.054 155.097 260.703 154.702 250.474Z" fill="#2D3278"/>
</svg>
