<svg width="839" height="278" viewBox="0 0 839 278" fill="none" xmlns="http://www.w3.org/2000/svg">
<path d="M114.279 161.616H135.227V191.196H114.279V231.187H77.5898V191.196H1.79883L0.148438 168.091L77.209 46.3428H114.279V161.616ZM36.7109 161.616H77.5898V96.3623L75.1777 100.552L36.7109 161.616Z" fill="#FFFAF6"/>
<path d="M279.445 154.761C279.445 180.321 274.156 199.871 263.576 213.413C252.997 226.955 237.508 233.726 217.111 233.726C196.968 233.726 181.564 227.082 170.9 213.794C160.236 200.506 154.777 181.463 154.523 156.665V122.642C154.523 96.8278 159.855 77.2347 170.52 63.8623C181.268 50.4899 196.714 43.8037 216.857 43.8037C237.001 43.8037 252.404 50.4476 263.068 63.7354C273.732 76.9385 279.191 95.9391 279.445 120.737V154.761ZM242.756 117.437C242.756 102.118 240.64 90.988 236.408 84.0479C232.261 77.0231 225.744 73.5107 216.857 73.5107C208.225 73.5107 201.835 76.8538 197.688 83.54C193.625 90.1416 191.467 100.509 191.213 114.644V159.585C191.213 174.65 193.244 185.864 197.307 193.228C201.454 200.506 208.055 204.146 217.111 204.146C226.083 204.146 232.557 200.633 236.535 193.608C240.513 186.584 242.587 175.835 242.756 161.362V117.437Z" fill="#FFFAF6"/>
<path d="M691.054 167.251C680.245 162.777 667.823 167.929 663.35 178.726C658.877 189.527 664.023 201.954 674.825 206.43C685.626 210.905 698.054 205.757 702.527 194.954C707.001 184.154 701.854 171.726 691.054 167.251ZM683.198 160.981C686.418 161.009 689.683 161.642 692.835 162.947C699.218 165.593 704.189 170.562 706.831 176.943C709.475 183.326 709.474 190.354 706.83 196.737C701.374 209.911 686.214 216.189 673.043 210.733C666.662 208.089 661.691 203.118 659.047 196.737C656.403 190.355 656.403 183.326 659.047 176.945C663.198 166.923 672.965 160.89 683.198 160.981" fill="#2D3278"/>
<path d="M718.542 179.128L768.778 39.0151C771.142 33.3004 771.143 27.1218 768.819 21.5124C766.496 15.9018 762.126 11.5338 756.518 9.2111C744.936 4.41376 731.616 9.93376 726.818 21.5124L654.3 175.1C653.871 176.138 653.491 177.236 653.171 178.37L658.499 178.416C658.672 177.898 658.851 177.414 659.047 176.943C664.504 163.77 679.666 157.492 692.835 162.948C699.903 165.878 705.17 171.611 707.507 178.844L716.379 178.922C717.086 178.928 717.803 178.995 718.542 179.128ZM748.082 2.82309C751.495 2.85243 754.958 3.5231 758.299 4.9071C765.059 7.7071 770.323 12.9698 773.123 19.7298C775.922 26.4898 775.922 33.9338 773.122 40.6938L722.211 182.694C721.786 183.879 720.491 184.51 719.295 184.12C718.192 183.759 717.252 183.587 716.339 183.579L705.727 183.487C704.666 183.478 703.746 182.752 703.487 181.723C701.836 175.115 697.304 169.842 691.052 167.252C680.251 162.776 667.823 167.93 663.35 178.727C662.99 179.598 662.716 180.479 662.479 181.364C662.206 182.388 661.271 183.099 660.21 183.09L650.216 183.002C649.526 182.995 648.874 182.684 648.435 182.151C647.999 181.618 647.82 180.918 647.947 180.24C648.403 177.835 649.108 175.471 650.042 173.215L722.559 19.6258C726.922 9.09509 737.248 2.72709 748.082 2.82309" fill="#2D3278"/>
<path d="M791.438 52.4194C794.454 52.4461 796.929 50.0141 796.954 46.9994L797.241 14.2821C797.268 11.2674 794.836 8.79141 791.82 8.76608L764.573 8.52742C768.318 11.4141 771.264 15.2407 773.122 19.7287C775.922 26.4887 775.922 33.9341 773.122 40.6914L768.99 52.2247L791.438 52.4194ZM754.666 3.78208L791.86 4.10875C797.444 4.15675 801.948 8.73808 801.898 14.3234L801.613 47.0394C801.564 52.6234 796.982 57.1261 791.397 57.0767L765.672 56.8527C764.918 56.8461 764.213 56.4741 763.782 55.8567C763.35 55.2367 763.245 54.4474 763.5 53.7367L768.778 39.0141C771.142 33.2994 771.142 27.1207 768.818 21.5114C766.496 15.9007 762.126 11.5327 756.518 9.21008C755.689 8.86741 754.85 8.59142 754.008 8.35142C752.888 8.03142 752.176 6.93408 752.341 5.78075C752.508 4.62475 753.501 3.77408 754.666 3.78208" fill="#2D3278"/>
<path d="M731.453 8.23867L704.374 8.00267C701.36 7.976 698.884 10.408 698.858 13.424L698.572 46.14C698.546 49.1547 700.978 51.6307 703.994 51.656L707.422 51.6867L722.56 19.6267C724.462 15.0307 727.545 11.1267 731.453 8.23867ZM704.416 3.344L741.484 3.668C742.652 3.67867 743.63 4.54933 743.774 5.708C743.921 6.86667 743.186 7.952 742.057 8.24933C735.105 10.08 729.552 14.9147 726.817 21.5133L710.998 55.0227C710.61 55.844 709.78 56.3653 708.872 56.3573L703.953 56.3147C698.369 56.2667 693.866 51.6827 693.914 46.1L694.2 13.3827C694.249 7.79867 698.832 3.296 704.416 3.344" fill="#2D3278"/>
<path d="M657.376 183.064L608.12 182.634C602.697 182.586 598.248 186.96 598.201 192.381L597.644 256.209L725.53 257.325L726.088 193.498C726.134 188.077 721.761 183.626 716.338 183.578L708.565 183.51C709.164 187.997 708.577 192.518 706.83 196.737C704.188 203.118 699.217 208.09 692.837 210.733C686.45 213.374 679.424 213.373 673.044 210.733C662.024 206.168 655.658 194.628 657.376 183.064ZM608.16 177.976L660.25 178.43C660.97 178.437 661.648 178.776 662.085 179.35C662.521 179.925 662.665 180.668 662.48 181.365C659.726 191.598 665.034 202.374 674.825 206.429C680.056 208.594 685.82 208.593 691.053 206.428C696.285 204.261 700.36 200.188 702.528 194.954C704.269 190.748 704.601 186.172 703.488 181.722C703.313 181.024 703.472 180.281 703.917 179.716C704.364 179.149 705.046 178.821 705.768 178.828L716.38 178.921C724.37 178.99 730.816 185.548 730.745 193.538L730.168 259.696C730.156 260.981 729.104 262.016 727.818 262.004L595.273 260.848C593.988 260.836 592.954 259.784 592.965 258.497L593.542 192.341C593.613 184.35 600.169 177.906 608.16 177.976" fill="#2D3278"/>
<path d="M686.667 177.837C681.704 175.784 675.993 178.148 673.937 183.111C671.881 188.075 674.247 193.787 679.212 195.843C684.167 197.895 689.884 195.532 691.94 190.569C692.936 188.164 692.937 185.517 691.94 183.112C690.945 180.708 689.072 178.833 686.667 177.837ZM683.083 172.439C684.876 172.455 686.695 172.808 688.449 173.535H688.451C692.005 175.008 694.772 177.775 696.244 181.328C697.717 184.884 697.717 188.797 696.244 192.353C693.204 199.687 684.767 203.191 677.428 200.145C670.092 197.105 666.595 188.665 669.633 181.329C671.944 175.749 677.383 172.389 683.083 172.439" fill="#2D3278"/>
<path d="M747.694 44.7293C749.617 44.7466 751.541 44.376 753.372 43.6173C756.953 42.1346 759.742 39.3453 761.225 35.764C764.286 28.3706 760.762 19.8666 753.372 16.804C749.79 15.3226 745.845 15.3173 742.264 16.804C738.684 18.2866 735.894 21.076 734.41 24.656C732.926 28.2386 732.928 32.1826 734.412 35.7626C735.894 39.344 738.682 42.1346 742.264 43.6173C744.014 44.3413 745.854 44.712 747.694 44.7293ZM747.982 11.0306C750.413 11.052 752.841 11.5413 755.153 12.5C764.918 16.544 769.573 27.78 765.529 37.5453C761.486 47.312 750.256 51.9706 740.482 47.92C735.752 45.9626 732.066 42.2773 730.108 37.5453C728.148 32.8146 728.148 27.604 730.108 22.8746C732.068 18.1453 735.752 14.46 740.482 12.5C742.9 11.4986 745.444 11.008 747.982 11.0306" fill="#2D3278"/>
<path d="M830.649 39.4026C832.608 39.4199 834.216 37.8386 834.233 35.8799L834.319 26.0492C834.336 24.0919 832.756 22.4839 830.797 22.4666L801.829 22.2132L801.681 39.1506L830.649 39.4026ZM799.541 17.5359L830.839 17.8092C835.365 17.8479 839.016 21.5639 838.977 26.0919L838.891 35.9212C838.851 40.4479 835.136 44.0999 830.609 44.0612L799.312 43.7879C798.027 43.7759 796.992 42.7239 797.004 41.4372L797.192 19.8439C797.204 18.5586 798.256 17.5239 799.541 17.5359" fill="#2D3278"/>
<path d="M830.649 39.4026C832.608 39.4199 834.216 37.8386 834.233 35.8799L834.319 26.0492C834.336 24.0919 832.756 22.4839 830.797 22.4666L801.829 22.2132L801.681 39.1506L830.649 39.4026Z" fill="#2D3278"/>
<path d="M693.956 21.2723L567.688 20.1696L567.54 37.1056L693.808 38.2083L693.956 21.2723ZM565.4 15.491L696.325 16.6336C697.61 16.6456 698.645 17.6976 698.633 18.983L698.445 40.5776C698.434 41.863 697.381 42.8976 696.096 42.8856L565.17 41.7443C563.885 41.7323 562.85 40.6803 562.862 39.3936L563.05 17.8003C563.062 16.515 564.114 15.479 565.4 15.491" fill="#2D3278"/>
<path d="M693.956 21.272L567.688 20.1693L567.54 37.1053L693.808 38.208L693.956 21.272Z" fill="#2D3278"/>
<path d="M787.79 19.8502C788.861 19.8596 789.738 18.9942 789.747 17.9249C789.758 16.8542 788.894 15.9769 787.823 15.9676C786.754 15.9569 785.874 16.8209 785.865 17.8902C785.855 18.9609 786.719 19.8396 787.79 19.8502ZM787.865 11.3089C791.503 11.3409 794.438 14.3249 794.406 17.9649C794.374 21.6036 791.389 24.5396 787.75 24.5076C784.11 24.4756 781.175 21.4889 781.207 17.8502C781.238 14.2116 784.226 11.2769 787.865 11.3089" fill="#2D3278"/>
<path d="M787.681 32.5006C788.751 32.5099 789.629 31.6459 789.638 30.5766C789.647 29.5059 788.785 28.6273 787.714 28.6179C786.645 28.6073 785.765 29.4726 785.755 30.5419C785.746 31.6126 786.61 32.4913 787.681 32.5006ZM787.755 23.9593C791.394 23.9913 794.327 26.9779 794.295 30.6179C794.263 34.2553 791.279 37.1899 787.639 37.1579C784.001 37.1273 781.066 34.1406 781.098 30.5019C781.129 26.8619 784.117 23.9273 787.755 23.9593" fill="#2D3278"/>
<path d="M787.569 45.15C788.64 45.1593 789.517 44.2953 789.527 43.226C789.536 42.1553 788.673 41.2767 787.603 41.2673C786.533 41.2567 785.653 42.122 785.644 43.1913C785.635 44.262 786.499 45.1407 787.569 45.15ZM787.644 36.6087C791.283 36.6407 794.216 39.6273 794.184 43.2673C794.153 46.9047 791.168 49.8407 787.528 49.8073C783.889 49.7767 780.955 46.79 780.987 43.1513C781.017 39.5113 784.005 36.5767 787.644 36.6087" fill="#2D3278"/>
<path d="M739.812 262.11L586.1 260.767L586.014 270.612L739.726 271.955L739.812 262.11ZM583.812 256.088L742.181 257.471C743.466 257.483 744.501 258.535 744.489 259.82L744.364 274.324C744.352 275.61 743.3 276.643 742.013 276.634L583.645 275.25C582.36 275.239 581.325 274.187 581.337 272.9L581.462 258.398C581.474 257.112 582.526 256.079 583.812 256.088" fill="#2D3278"/>
<path d="M739.812 262.11L586.1 260.767L586.014 270.612L739.726 271.955L739.812 262.11Z" fill="#2D3278"/>
<path d="M717.569 222.236L675.026 221.866L717.569 222.236Z" fill="#2D3278"/>
<path d="M675.046 219.537L717.59 219.908C718.876 219.92 719.91 220.972 719.898 222.257C719.887 223.544 718.835 224.577 717.548 224.565L675.004 224.195C673.719 224.183 672.684 223.131 672.696 221.845C672.708 220.56 673.76 219.525 675.046 219.537Z" fill="#2D3278"/>
<path d="M717.504 229.729L674.96 229.359L717.504 229.729Z" fill="#2D3278"/>
<path d="M674.979 227.029L717.523 227.401C718.81 227.412 719.843 228.464 719.833 229.75C719.821 231.037 718.769 232.07 717.483 232.058L674.939 231.688C673.653 231.676 672.619 230.624 672.63 229.337C672.642 228.053 673.694 227.018 674.979 227.029Z" fill="#2D3278"/>
<path d="M717.438 237.223L674.896 236.852L717.438 237.223Z" fill="#2D3278"/>
<path d="M674.915 234.522L717.459 234.894C718.746 234.905 719.779 235.957 719.767 237.244C719.756 238.529 718.704 239.562 717.418 239.552L674.874 239.181C673.588 239.169 672.554 238.117 672.566 236.83C672.578 235.546 673.63 234.512 674.915 234.522Z" fill="#2D3278"/>
<path d="M717.373 244.717L674.829 244.346L717.373 244.717Z" fill="#2D3278"/>
<path d="M674.848 242.016L717.392 242.387C718.679 242.399 719.712 243.451 719.702 244.738C719.69 246.023 718.638 247.056 717.352 247.046L674.808 246.674C673.522 246.663 672.488 245.61 672.499 244.324C672.511 243.04 673.563 242.006 674.848 242.016Z" fill="#2D3278"/>
<path d="M522.106 13.8809C512.884 6.07553 500.176 3.47286 488.639 7.28486C477.935 10.8249 469.654 19.2249 466.259 29.8969L472.752 36.6222C474.208 26.4315 481.278 17.9595 491.203 14.7275C499.462 12.0342 508.574 13.5769 515.572 18.7222C517.232 16.6289 519.356 15.0155 521.827 13.9915C521.918 13.9542 522.011 13.9155 522.106 13.8809ZM499.762 0.896865C510.487 0.988865 520.995 5.46886 528.571 13.6275C529.179 14.2809 529.358 15.2275 529.032 16.0595C528.708 16.8929 527.935 17.4649 527.044 17.5329C525.723 17.6342 524.6 17.8849 523.611 18.2942C521.288 19.2582 519.391 20.9755 518.127 23.2635C517.783 23.8862 517.174 24.3155 516.475 24.4342C515.768 24.5502 515.059 24.3435 514.532 23.8702C508.562 18.5115 500.174 16.7075 492.644 19.1555C483.907 22.0009 477.843 29.7475 477.192 38.8902C477.11 40.0809 476.746 41.2422 476.083 42.4395C475.726 43.0849 475.084 43.5235 474.351 43.6209C473.62 43.7102 472.883 43.4609 472.372 42.9302L461.966 32.1555C461.391 31.5622 461.175 30.7089 461.395 29.9129C464.939 17.1435 474.575 7.0302 487.178 2.8622C491.295 1.50086 495.547 0.859531 499.762 0.896865" fill="#2D3278"/>
<path d="M522.106 13.8809C512.884 6.07553 500.176 3.47286 488.639 7.28486C477.935 10.8249 469.654 19.2249 466.259 29.8969L472.752 36.6222C474.208 26.4315 481.278 17.9595 491.203 14.7275C499.462 12.0342 508.574 13.5769 515.572 18.7222C517.232 16.6289 519.356 15.0155 521.827 13.9915L521.841 13.9859C521.927 13.9504 522.016 13.9138 522.106 13.8809Z" fill="#2D3278"/>
<path d="M527.822 39.96C529.314 39.9733 530.808 39.6853 532.23 39.0973C537.964 36.72 540.696 30.1226 538.32 24.3853C537.17 21.6066 535.004 19.444 532.228 18.2933C529.448 17.144 526.39 17.1413 523.608 18.296C517.875 20.672 515.142 27.2693 517.518 33.0053C518.67 35.784 520.834 37.9466 523.611 39.0986C524.968 39.66 526.395 39.9466 527.822 39.96ZM528.058 12.7706C530.074 12.788 532.09 13.1946 534.01 13.9893C537.938 15.616 540.996 18.676 542.624 22.604C545.983 30.7106 542.12 40.0413 534.012 43.4C530.084 45.0226 525.759 45.028 521.83 43.4013C517.902 41.7746 514.842 38.7146 513.214 34.788C509.855 26.68 513.719 17.3506 521.827 13.9906C523.834 13.16 525.947 12.7533 528.058 12.7706" fill="#2D3278"/>
<path d="M499.16 75.4034C503.773 75.4434 508.432 74.5634 512.884 72.718C524.991 67.702 533.192 56.1994 534.243 43.3034C534.164 43.3354 534.088 43.3687 534.013 43.4007C531.541 44.426 528.895 44.7834 526.236 44.4807C524.827 53.766 518.621 61.8234 509.871 65.4487C504.856 67.5271 499.49 68.0235 494.396 67.0377C489.868 66.1615 485.554 64.1148 481.889 60.9674C480.683 59.9314 479.072 59.642 477.7 60.21C476.412 60.7434 475.548 61.8354 475.328 63.2087C475.105 64.5847 475.607 65.9527 476.669 66.8714C480.974 70.5902 485.978 73.1284 491.255 74.4171C493.841 75.0487 496.493 75.3801 499.16 75.4034ZM536.676 36.6927C536.987 36.6954 537.299 36.7607 537.593 36.89C538.409 37.2487 538.948 38.0407 538.983 38.93C539.637 55.4167 529.865 70.7234 514.665 77.022C500.757 82.7834 485.028 80.2474 473.625 70.3954C471.331 68.4154 470.248 65.45 470.729 62.4674C471.205 59.5074 473.144 57.0554 475.915 55.906C478.927 54.662 482.375 55.246 484.924 57.4327C491.375 62.9714 500.243 64.394 508.088 61.1447C516.015 57.8607 521.417 50.1807 521.855 41.5794C521.889 40.8687 522.249 40.2127 522.827 39.8007C523.408 39.3874 524.14 39.2634 524.827 39.4607C527.344 40.1874 529.905 40.0607 532.227 39.098H532.231C533.208 38.6927 534.135 38.1034 535.151 37.2434C535.584 36.8767 536.129 36.6887 536.676 36.6927Z" fill="#FFFAF6"/>
<path fill-rule="evenodd" clip-rule="evenodd" d="M478.8 157.167L459.526 148.963L491.255 74.4171C485.978 73.1284 480.974 70.5902 476.669 66.8714C475.607 65.9527 475.105 64.5847 475.328 63.2087C475.548 61.8354 476.412 60.7434 477.7 60.21C479.072 59.642 480.683 59.9314 481.889 60.9674C485.554 64.1148 489.868 66.1615 494.396 67.0377L504.67 42.8978L470.561 28.3799L351.976 110.224L344.445 132.13L414.182 161.812L398.521 198.608L432.28 212.977L447.941 176.181L467.215 184.384L478.8 157.167ZM425.767 134.595L388.153 118.585L447.462 77.4632L451.322 74.5531L425.767 134.595Z" fill="#FFFAF6"/>
<path d="M499.16 75.4031C503.774 75.4431 508.432 74.5631 512.884 72.7177C524.991 67.7017 533.192 56.1991 534.243 43.3031C534.164 43.3351 534.088 43.3684 534.014 43.4004C531.542 44.4257 528.895 44.7831 526.236 44.4804C524.827 53.7657 518.622 61.8231 509.871 65.4484C500.399 69.3737 489.679 67.6564 481.89 60.9671C480.683 59.9311 479.072 59.6417 477.7 60.2097C476.412 60.7431 475.548 61.8351 475.328 63.2084C475.106 64.5844 475.607 65.9524 476.67 66.8711C483.084 72.4124 491.05 75.3324 499.16 75.4031Z" fill="#2D3278"/>
<path d="M499.16 75.4031C503.774 75.4431 508.432 74.5631 512.884 72.7177C524.991 67.7017 533.192 56.1991 534.243 43.3031C534.164 43.3351 534.088 43.3684 534.014 43.4004C531.542 44.4257 528.895 44.7831 526.236 44.4804C524.827 53.7657 518.622 61.8231 509.871 65.4484C500.399 69.3737 489.679 67.6564 481.89 60.9671C480.683 59.9311 479.072 59.6417 477.7 60.2097C476.412 60.7431 475.548 61.8351 475.328 63.2084C475.106 64.5844 475.607 65.9524 476.67 66.8711C483.084 72.4124 491.05 75.3324 499.16 75.4031ZM533.12 41.2484H533.09H533.12ZM536.676 36.6924C536.987 36.6951 537.299 36.7604 537.594 36.8897C538.41 37.2484 538.948 38.0404 538.983 38.9297C539.638 55.4164 529.866 70.7231 514.666 77.0217C500.758 82.7831 485.028 80.2471 473.626 70.3951C471.331 68.4151 470.248 65.4497 470.73 62.4671C471.206 59.5071 473.144 57.0551 475.915 55.9057C478.927 54.6617 482.375 55.2457 484.924 57.4324C491.375 62.9711 500.243 64.3937 508.088 61.1444C516.015 57.8604 521.418 50.1804 521.855 41.5791C521.89 40.8684 522.25 40.2124 522.827 39.8004C523.408 39.3871 524.14 39.2631 524.827 39.4604C527.344 40.1871 529.906 40.0604 532.227 39.0977H532.231C533.208 38.6924 534.135 38.1031 535.151 37.2431C535.584 36.8764 536.13 36.6884 536.676 36.6924" fill="#2D3278"/>
<path d="M527.89 32.87C528.432 32.8754 528.984 32.7727 529.518 32.5527C530.547 32.1247 531.35 31.3234 531.776 30.2927C532.202 29.262 532.202 28.1274 531.775 27.0994C530.894 24.9727 528.455 23.966 526.32 24.8394C525.291 25.266 524.488 26.0674 524.063 27.0994C523.636 28.1287 523.636 29.2634 524.063 30.2914C524.724 31.8874 526.264 32.8554 527.89 32.87ZM527.982 19.8647C531.422 19.8954 534.68 21.9434 536.079 25.314C536.982 27.494 536.982 29.8967 536.079 32.074C535.176 34.254 533.479 35.9514 531.302 36.8554C526.794 38.7234 521.623 36.5727 519.759 32.0767C518.856 29.898 518.856 27.4967 519.759 25.318C520.662 23.1367 522.359 21.4407 524.536 20.5354C525.664 20.0687 526.832 19.854 527.982 19.8647" fill="#2D3278"/>
<path d="M521.93 28.8556C522.837 28.8636 523.694 29.4036 524.063 30.293C524.555 31.4823 523.991 32.8436 522.802 33.3356L516.257 36.0489C515.069 36.5409 513.706 35.9756 513.214 34.7876C512.722 33.5996 513.286 32.2369 514.475 31.7449L521.021 29.0329C521.319 28.9089 521.627 28.853 521.93 28.8556Z" fill="#2D3278"/>
<path d="M555.991 44.7426C559.753 44.7746 562.842 41.7413 562.874 37.9799L563.038 19.2133C563.071 15.4506 560.037 12.3653 556.274 12.3319L527.046 12.0773C527.307 12.3266 527.566 12.5826 527.819 12.8399C534.391 12.8146 540.138 16.6039 542.625 22.6039C545.123 28.6346 543.661 35.4919 539.011 40.0253C539.027 41.5333 538.951 43.0586 538.79 44.5933L555.991 44.7426ZM520.405 7.35993L556.315 7.67327C562.646 7.72927 567.751 12.9239 567.695 19.2546L567.531 38.0199C567.477 44.3506 562.281 49.4559 555.951 49.3999L536.094 49.2266C535.41 49.2213 534.763 48.9159 534.326 48.3893C533.887 47.8639 533.703 47.1706 533.821 46.4973C534.254 44.0106 534.425 41.5266 534.329 39.1133C534.301 38.3973 534.603 37.7079 535.151 37.2426C538.913 34.0573 540.189 28.8906 538.321 24.3866C536.465 19.9066 531.951 17.1653 527.042 17.5333C526.329 17.5839 525.642 17.3159 525.157 16.7959C523.382 14.8826 521.338 13.1426 519.082 11.6199C518.23 11.0466 517.855 9.97993 518.159 8.99727C518.465 8.01727 519.377 7.35193 520.405 7.35993" fill="#2D3278"/>
<path d="M702.327 152.697C707.466 152.743 712.367 149.715 714.451 144.684L740.764 71.2852C742.746 66.4946 740.512 61.1012 735.827 59.1599C731.13 57.2146 725.746 59.4519 723.806 64.1386C723.792 64.1732 723.776 64.2092 723.762 64.2426L690.42 134.853C687.727 141.363 690.878 148.971 697.49 151.711C699.074 152.365 700.712 152.683 702.327 152.697ZM732.444 53.8012C734.17 53.8172 735.919 54.1572 737.608 54.8572C741.03 56.2732 743.691 58.9372 745.108 62.3572C746.524 65.7772 746.524 69.5439 745.108 72.9626L718.794 146.363C715.032 155.451 704.69 159.736 695.708 156.013C686.72 152.291 682.439 141.953 686.162 132.968L719.524 62.3026C721.763 56.9652 726.978 53.7546 732.444 53.8012" fill="#2D3278"/>
<path fill-rule="evenodd" clip-rule="evenodd" d="M718.542 179.129L768.778 39.0152C771.142 33.3006 771.143 27.1219 768.819 21.5126C766.496 15.9019 762.126 11.5339 756.518 9.21124C744.936 4.41391 731.616 9.93391 726.818 21.5126L654.3 175.101C653.871 176.138 653.491 177.237 653.171 178.37L658.499 178.417C658.672 177.898 658.851 177.414 659.047 176.943C664.504 163.77 679.666 157.493 692.835 162.949C699.903 165.878 705.17 171.611 707.507 178.845L716.379 178.922C717.086 178.929 717.803 178.995 718.542 179.129ZM737.608 54.8574C735.919 54.1574 734.17 53.8174 732.444 53.8014C726.978 53.7547 721.763 56.9654 719.524 62.3027L686.162 132.968C682.439 141.953 686.72 152.291 695.708 156.013C704.69 159.736 715.032 155.451 718.794 146.363L745.108 72.9627C746.524 69.544 746.524 65.7774 745.108 62.3574C743.691 58.9374 741.03 56.2734 737.608 54.8574ZM755.153 12.4999C752.841 11.5412 750.413 11.0519 747.982 11.0305C745.444 11.0079 742.9 11.4985 740.482 12.4999C735.752 14.4599 732.068 18.1452 730.108 22.8745C728.148 27.6039 728.148 32.8145 730.108 37.5452C732.066 42.2772 735.752 45.9625 740.482 47.9199C750.256 51.9705 761.486 47.3119 765.529 37.5452C769.573 27.7799 764.918 16.5439 755.153 12.4999Z" fill="#2D3278"/>
</svg>
